<?xml version="1.0" encoding="UTF-8"?>
<svg id="Capa_2" data-name="Capa 2" xmlns="http://www.w3.org/2000/svg" viewBox="0 0 332.81 512">
  <defs>
    <style>
      .cls-1 {
        stroke-width: 2.37px;
      }

      .cls-1, .cls-2, .cls-3, .cls-4 {
        fill: none;
        stroke: #000;
        stroke-linecap: round;
        stroke-linejoin: round;
      }

      .cls-5 {
        fill: #f2c9a5;
      }

      .cls-6 {
        fill: #fff;
      }

      .cls-2 {
        stroke-width: 4.47px;
      }

      .cls-7 {
        fill: #f5e8dc;
      }

      .cls-8 {
        fill: #7c0b2b;
      }

      .cls-3 {
        stroke-width: 2.27px;
      }

      .cls-9 {
        fill: #be274b;
      }

      .cls-4 {
        stroke-width: 2.24px;
      }
    </style>
  </defs>
  <g id="_01" data-name="01">
    <g>
      <path class="cls-6" d="M330.96,227.46c-6.63-14.78-15.33-28.6-25.78-41.1,2.28-2,4.14-4.52,5.31-7.43,2.85-7.15,1.11-14.93-4.55-20.31-8.64-8.21-18.48-14.94-27.17-20.88-8.68-5.93-18.97-12.51-31.18-15.41-1.5-.36-3.03-.54-4.53-.54-2.44,0-4.78.48-6.94,1.36l-.5-7.31c12.13-.31,39.93-1.01,39.93-1.01,4.18-.1,8.07-1.83,10.96-4.86,2.88-3.03,4.41-7,4.3-11.18-.22-8.41-7.19-15.25-15.56-15.25-.03,0-1.58.04-4.07.1l4.33-.9c8.44-1.77,13.87-10.08,12.11-18.52-1.51-7.22-7.95-12.45-15.33-12.45-1.03,0-2.07.1-3.19.33l-30.23,6.31,25.57-25.12c6.15-6.05,6.23-15.98.18-22.13-2.92-2.97-6.99-4.68-11.16-4.68s-8.04,1.6-10.97,4.49l-33.12,32.54c-.24.23-.45.48-.66.72l.83-28.1c.13-4.18-1.38-8.16-4.25-11.2-2.87-3.04-6.75-4.79-10.85-4.91-.16,0-.39,0-.55,0-8.52,0-15.38,6.67-15.63,15.19l-1.07,36.07-112.57,7.14c-1.56.1-3.07.47-4.47,1.07l-1.04.07c-3.86.24-7.42,2.14-9.78,5.2-2.36,3.06-3.28,7-2.53,10.79l14.23,71.86-2.1,8.97c-3.4,14.56-7.01,31.22-10.2,45.93-.69,3.21-1.38,6.37-2.05,9.46-4.73-3.06-10.35-4.86-16.39-4.86-16.68,0-30.26,13.57-30.26,30.26s13.57,30.26,30.26,30.26c.57,0,1.12-.05,1.69-.09-1.78,3.26-3.5,6.71-5.18,10.42-8.33,18.43-13.03,37.86-13.68,56.36-1.44,4.07-2.16,8.31-2.16,12.66,0,7.12,1.96,14,5.7,20.04,2.74,10.22,7.03,19.62,12.75,27.96,7.41,10.81,17.36,20.3,30.96,29.48l-9.14,72.68c-.48,3.82.7,7.66,3.25,10.55,2.55,2.89,6.21,4.54,10.06,4.54h158.12c3.74,0,7.32-1.57,9.86-4.31,2.54-2.75,3.81-6.44,3.52-10.17l-1.39-17.32c3.21,1.17,6.66,1.84,10.28,1.84,16.68,0,30.25-13.57,30.25-30.26,0-12.73-7.91-23.62-19.06-28.08,26.95-18.54,46.66-43.34,56.82-72.19,1.58-4.47,2.94-9.11,4.06-13.77,4.39-18.3,5.36-37.49,2.89-57.12,3.1-5.61,4.71-11.86,4.71-18.36,0-3.4-.47-6.74-1.34-9.95.08-.05.17-.08.26-.13,8.52-4.98,11.67-15.38,7.48-24.72Z"/>
      <g>
        <g>
          <path class="cls-8" d="M297.11,345.36c1.42-4.03,2.65-8.18,3.67-12.44,7.83-32.65,3.34-67.69-10.14-98.44-12.24-27.92-32.34-53.03-59.09-67.65-35.98-19.66-86.07-17.98-113.97,14.96-13.38,15.8-20.14,36.96-35.91,50.37-6.69,5.69-14.67,9.66-21.5,15.18-10.99,8.87-18.51,21.35-24.33,34.22-14.91,33.01-19.04,74.03,1.44,103.91,10.88,15.87,27.45,26.88,44.31,36.15,37.35,20.54,75.2,25.19,116.1,12.31,44.8-14.11,83.74-44.09,99.4-88.57Z"/>
          <circle class="cls-8" cx="27.11" cy="235.45" r="16.84" transform="translate(-208.27 207.74) rotate(-76.72)"/>
          <circle class="cls-8" cx="241.75" cy="450.09" r="16.84" transform="translate(-247.45 302.77) rotate(-45)"/>
          <path class="cls-8" d="M233.29,160.79c32.2,16.33,57.79,43.21,72.64,76.11,2.95,6.55,12.59.87,9.65-5.64-15.54-34.44-42.95-63.04-76.65-80.12-6.4-3.25-12.07,6.39-5.64,9.65h0Z"/>
          <path class="cls-8" d="M238.37,144.47c9.07,2.26,16.75,7.32,24.38,12.53,7.96,5.44,15.86,10.92,22.9,17.55,5.24,4.93,13.16-2.96,7.9-7.9-7.72-7.27-16.42-13.32-25.16-19.29-8.42-5.75-17.05-11.17-27.05-13.66-6.98-1.74-9.96,9.04-2.97,10.78h0Z"/>
        </g>
        <g>
          <g>
            <polygon points="101.7 298.06 56.8 71.24 209.78 61.53 218.21 264.36 101.7 298.06"/>
            <polygon class="cls-9" points="107.22 296.91 62.32 70.09 215.3 60.39 230.72 283.59 107.22 296.91"/>
            <path class="cls-7" d="M203.98,75.61h0c3.71,0,6.81,2.84,7.12,6.54l3.32,38.99c.37,4.31-3.14,7.95-7.46,7.75l-1.36-.06c-3.67-.17-6.61-3.11-6.8-6.78l-1.96-38.92c-.21-4.08,3.05-7.51,7.14-7.51Z"/>
            <g>
              <polygon class="cls-9" points="131.93 95.41 189.3 92.96 177.61 207.74 159.23 208.8 131.93 95.41"/>
              <circle class="cls-9" cx="170.57" cy="235.88" r="13.7" transform="translate(-110.06 313.2) rotate(-69.53)"/>
            </g>
            <path class="cls-6" d="M191.32,175.43c-3.36-2.36-4.17-6.99-1.81-10.35l8.19-11.66c2.36-3.36,1.55-7.99-1.81-10.35l-21.16-14.87c-3.36-2.36-7.99-1.55-10.35,1.81l-8.19,11.66c-2.36,3.36-6.99,4.17-10.35,1.81l-11.66-8.19c-3.36-2.36-7.99-1.55-10.35,1.81l-14.87,21.16c-1.62,2.31-1.75,5.22-.57,7.59.58,1.4,1.55,2.65,2.88,3.59l12.86,9.04c1.85,2.5,1.99,6,.1,8.68l-8.19,11.66c-2.36,3.36-1.55,7.99,1.81,10.35l21.16,14.87c3.36,2.36,7.99,1.55,10.35-1.81l8.19-11.66c1.89-2.68,5.22-3.73,8.2-2.84l12.86,9.04c1.33.93,2.84,1.42,4.35,1.49,2.62.3,5.32-.8,6.94-3.11l.29-.41,14.06-20,.53-.75c2.36-3.36,1.55-7.99-1.81-10.35l-11.66-8.19Z"/>
          </g>
          <g>
            <g>
              <path class="cls-5" d="M197.81,345.06c-8,18.27-8.57,30.82-8.57,30.82l1.71,42.25s-47.96,17.69-97.03,5.14c0,0-.57-65.66-11.99-92.49-11.4-26.83-37.68-69.64-33.1-84.48,3.36-10.9,12.16-55,20.01-88.58.2-.87.4-1.72.6-2.57,2.91-12.41,5.46-23.21,7.11-30.18.29-1.25.92-2.33,1.72-3.15.6-.6,1.3-1.1,2.06-1.45,2.12-.96,4.74-.83,6.8.81,6.13,4.85,13.15,14.73,12.5,34.36-1.14,34.25-6.28,74.59-6.28,74.59l22.45,56.32,9.51,5.71.76-.76c.25-27.46,1.81-55.55,7.13-82.51,1.73-8.74,4.43-33.23,18.94-28.23,8.72,3.01,10.18,11.99,11.42,23.02,3.28,29.3,3.85,57.39,10.85,86.01l7.35-.93,15.48-1.94s8.56,39.98.58,58.24Z"/>
              <path d="M84.99,134.76c-.07,6.42-2.73,12.97-7.31,17.95-2.75,3.02-5.86,4.76-8.85,5.01.2-.87.4-1.72.6-2.57,2.91-.6,5.34-2.95,6.42-4.11,4.18-4.56,6.6-10.49,6.64-16.3.04-4.72-1.48-9.32-4.23-12.92.6-.6,1.3-1.1,2.06-1.45,3.02,4.02,4.72,9.14,4.67,14.4Z"/>
            </g>
            <path class="cls-4" d="M117.88,311.66s6.56-8.47,7.42-19.5c.86-11.04,4.85-60.99,7.42-80.39,2.57-19.41,5.71-29.97,16.27-31.11,10.56-1.14,13.13,8.85,17.13,45.95,4,37.1,4.57,57.37,9.13,70.21,4.57,12.84,2.28,26.83,2.57,28.54"/>
            <path class="cls-4" d="M157.65,184.55c-2.32-2.74-6.79-2.87-9.85-.99-3.06,1.88-4.89,5.29-5.84,8.76-1.36,4.92-1.23,10.25.39,15.1.43,1.28.96,2.54,1.81,3.59,1.68,2.08,4.44,3.06,7.11,3.13,2.95.08,5.94-.9,8.16-2.83s3.6-4.86,3.5-7.8"/>
          </g>
          <g>
            <polygon points="73.35 401.57 211.5 397 219.49 496.9 61.36 496.9 73.35 401.57"/>
            <path class="cls-7" d="M99.04,430.96c0,3.94-3.19,7.14-7.14,7.14s-7.14-3.19-7.14-7.14,3.19-7.14,7.14-7.14,7.14,3.19,7.14,7.14Z"/>
          </g>
          <g>
            <g>
              <path class="cls-7" d="M159.94,448.53s2.8-.99,3.87-1.15c-.02,0,.7,6.14,2.23,8.32-.04-.04,3.79-1.28,3.79-1.28,0,0,.74,1.69,1.01,2.66,0,.04-3.5,1.64-7.21,2.16,0,0-2.84-5.21-3.69-10.71Z"/>
              <path class="cls-7" d="M181.57,448.73c-1.88,0-3.41,1.56-3.41,3.47s1.53,3.47,3.41,3.47,3.41-1.55,3.41-3.47-1.52-3.47-3.41-3.47ZM181.48,453.4c-.38,0-.7-.32-.7-.72s.32-.72.7-.72.7.32.7.72-.31.72-.7.72Z"/>
              <path class="cls-7" d="M171.69,447.65s4.14-.84,6.97-1.09c.03.03.59,2.52.59,2.52,0,0-1.77.44-1.99.47.06-.03.75,4.3.72,4.73,0-.03-2.46.4-3.18.44,0,0-.75-4.29-.75-4.6,0,.06-2.24.15-2.24.15,0,0-.22-2.3-.13-2.61Z"/>
              <path class="cls-7" d="M170.01,448.14c-1.94,0-3.51,1.66-3.51,3.72s1.57,3.72,3.51,3.72,3.52-1.67,3.52-3.72-1.58-3.72-3.52-3.72ZM170.15,453.18c-.39,0-.7-.36-.7-.81s.31-.81.7-.81.7.37.7.81-.31.81-.7.81Z"/>
            </g>
            <g>
              <path class="cls-7" d="M170.51,435.87c-1.72,1.48-3.51,3.03-5.32,4.6h19.65c-.44-.61-1.81-2.49-3.44-4.6h-10.89Z"/>
              <g>
                <path class="cls-7" d="M193.95,439.31l-4.17-7.93h-.02c-2.47-3.81-4.16-5.37-5.86-5.37-.71,0-1.48.26-2.43.82-.96.59-2.87,2.05-5.66,4.36,3.08,3.61,7.92,10.25,9.9,13.14.09.16.18.29.26.4.59.95,1.64,1.48,2.88,1.48.88,0,1.79-.27,2.64-.77,2.28-1.36,3.4-4.05,2.51-6-.04-.08-.05-.12-.06-.12Z"/>
                <path class="cls-7" d="M153.8,448.83c6.98-6.11,15.67-13.72,21.47-18.52,2.97-2.45,4.91-3.95,5.94-4.57,1.04-.61,1.9-.89,2.7-.89,1.48,0,2.87.94,4.63,3.23l-5.38-11.79c-.18-.33-.41-.63-.55-.76-.76-.73-1.78-1.12-2.96-1.12-.82,0-1.69.2-2.51.56-.81.34-1.61.85-2.38,1.53l-37.61,37.39h0s-.21.2-.21.2c-.97.88-1.59,2.04-1.69,3.19-.09.94.17,1.8.74,2.42.68.74,1.74,1.09,2.91.93.95-.13,1.91-.57,2.71-1.26l1.93-1.66-.17.22c2.33-1.98,6.17-5.34,10.44-9.08Z"/>
              </g>
            </g>
          </g>
        </g>
        <g>
          <line class="cls-2" x1="189.61" y1="52.4" x2="190.76" y2="13.96"/>
          <line class="cls-2" x1="217.2" y1="52.97" x2="250.31" y2="20.43"/>
          <line class="cls-2" x1="226.34" y1="74.66" x2="269.15" y2="65.72"/>
          <line class="cls-2" x1="226.91" y1="98.64" x2="272.01" y2="97.5"/>
        </g>
        <ellipse class="cls-1" cx="282.77" cy="260.57" rx="24.05" ry="23.85"/>
        <ellipse class="cls-1" cx="46.44" cy="345.05" rx="24.05" ry="23.85"/>
        <g>
          <line class="cls-3" x1="256.2" y1="346.4" x2="218.17" y2="363.11"/>
          <line class="cls-3" x1="227.96" y1="334.45" x2="246.09" y2="373.92"/>
        </g>
      </g>
    </g>
  </g>
</svg>