<?xml version="1.0" encoding="UTF-8"?>
<svg id="Capa_2" data-name="Capa 2" xmlns="http://www.w3.org/2000/svg" viewBox="0 0 559.34 173.81">
  <defs>
    <style>
      .cls-1 {
        fill: #fff;
      }

      .cls-2 {
        fill: #ef5e2d;
      }
    </style>
  </defs>
  <g id="_01" data-name="01">
    <g>
      <g>
        <path class="cls-1" d="M90.13,1.17h46.38v14.92h-28.51v5.52h26.57v13.13h-26.57v5.91h28.9v14.92h-46.77V1.17Z"/>
        <path class="cls-1" d="M141.8,1.17h18.18v38.85h25.56v15.54h-43.74V1.17Z"/>
        <path class="cls-1" d="M211.57,28.51v-.16c0-16.24,12.82-28.36,29.99-28.36,9.4,0,16.86,3.03,22.76,8.24l-10.18,12.28c-3.65-3.03-7.46-4.74-12.04-4.74-7.15,0-12.2,5.44-12.2,12.82v.16c0,7.77,5.36,12.98,12.98,12.98,3.11,0,4.74-.39,6.22-1.24v-5.44h-9.32v-11.65h26.34v25.17c-5.9,4.9-14.06,8.16-24.01,8.16-17.02,0-30.54-11.34-30.54-28.2Z"/>
        <path class="cls-1" d="M271.4,1.17h46.38v14.92h-28.51v5.52h26.57v13.13h-26.57v5.91h28.9v14.92h-46.77V1.17Z"/>
        <path class="cls-1" d="M323.06,1.17h17.02l19.35,24.01V1.17h18.03v54.39h-16.16l-20.2-25.1v25.1h-18.03V1.17Z"/>
        <path class="cls-1" d="M383.82,1.17h18.18v54.39h-18.18V1.17Z"/>
        <path class="cls-1" d="M407.13,28.51v-.16c0-15.77,12.98-28.36,29.76-28.36s29.6,12.35,29.6,28.2v.16c0,15.77-12.98,28.36-29.76,28.36s-29.6-12.35-29.6-28.2ZM448.16,28.51v-.16c0-6.45-4.43-12.28-11.42-12.28s-11.27,5.75-11.27,12.12v.16c0,6.45,4.43,12.28,11.42,12.28s11.27-5.75,11.27-12.12Z"/>
        <path class="cls-1" d="M0,71.58h18.96l11.65,19.11,11.66-19.11h18.96v54.39h-18.1v-26.96l-12.51,19.35h-.31l-12.51-19.35v26.96H0v-54.39Z"/>
        <path class="cls-1" d="M66.97,101.57v-29.99h18.49v29.76c0,6.76,3.5,9.63,8.39,9.63s8.39-2.64,8.39-9.25v-30.15h18.49v29.6c0,18.57-10.8,25.87-27.04,25.87s-26.73-7.46-26.73-25.48Z"/>
        <path class="cls-1" d="M126.49,71.58h17.02l19.35,24.01v-24.01h18.03v54.39h-16.16l-20.2-25.1v25.1h-18.03v-54.39Z"/>
        <path class="cls-1" d="M187.1,71.58h20.82c21.6,0,32.4,10.57,32.4,26.73v.16c0,16.16-11.03,27.5-33.02,27.5h-20.2v-54.39ZM205.28,87.43v22.69h3.03c8.39,0,13.67-3.42,13.67-11.27v-.16c0-7.85-5.28-11.27-13.67-11.27h-3.03Z"/>
        <path class="cls-1" d="M245.45,71.58h18.18v54.39h-18.18v-54.39Z"/>
        <path class="cls-1" d="M288.96,71.19h18.03l22.92,54.78h-19.74l-2.87-7.3h-19.04l-2.8,7.3h-19.42l22.92-54.78ZM302.79,105.76l-4.97-13.21-4.97,13.21h9.95Z"/>
        <path class="cls-1" d="M332.16,71.58h18.18v38.85h25.56v15.54h-43.74v-54.39Z"/>
        <path class="cls-1" d="M380.02,71.58h18.18v54.39h-18.18v-54.39Z"/>
        <path class="cls-1" d="M400.06,117.81l9.71-11.58c5.91,4.58,12.59,6.37,19.04,6.37,3.34,0,4.66-.85,4.66-2.33v-.16c0-1.55-1.71-2.41-7.54-3.57-12.2-2.49-22.92-5.98-22.92-17.48v-.16c0-10.33,8.16-18.34,23.08-18.34,10.57,0,18.26,2.49,24.55,7.46l-8.86,12.28c-5.21-3.73-11.27-5.36-16.32-5.36-2.72,0-3.96.93-3.96,2.25v.16c0,1.48,1.4,2.49,7.23,3.5,13.91,2.49,23.23,6.68,23.23,17.56v.16c0,11.42-9.4,18.41-24.01,18.41-11.11,0-20.98-3.03-27.89-9.17Z"/>
        <path class="cls-1" d="M468.12,86.96h-16.01v-15.38h50.19v15.38h-16.01v39h-18.18v-39Z"/>
        <path class="cls-1" d="M518.4,71.19h18.03l22.92,54.78h-19.74l-2.88-7.3h-19.04l-2.8,7.3h-19.42l22.92-54.78ZM532.23,105.76l-4.97-13.21-4.97,13.21h9.95Z"/>
      </g>
      <g>
        <path class="cls-2" d="M13.16,150.14H4.32l1.23-4.51h22.52l-1.23,4.51h-8.8l-6.26,23.19h-4.88l6.26-23.19Z"/>
        <path class="cls-2" d="M32.74,145.63h4.92l-3.09,11.52h13.04l3.09-11.52h4.88l-7.45,27.71h-4.88l3.13-11.68h-13.04l-3.13,11.68h-4.92l7.45-27.71Z"/>
        <path class="cls-2" d="M62.71,145.63h20.38l-1.19,4.35h-15.5l-1.94,7.24h13.76l-1.19,4.31h-13.72l-2.02,7.44h15.74l-1.19,4.35h-20.57l7.45-27.71Z"/>
        <path class="cls-2" d="M95.96,164.63c0-1.46.2-2.93.63-4.39l3.88-14.61h4.92l-4.12,15.28c-.28.91-.4,1.9-.4,3.05,0,3.13,1.98,5.3,5.83,5.3,2.1,0,3.81-.67,5.19-2.06,1.31-1.31,2.38-3.17,3.05-5.82l4.24-15.75h4.88l-4.44,16.51c-.95,3.52-2.38,6.25-4.32,8.19-2.26,2.26-5.23,3.44-9.08,3.44-6.54,0-10.27-3.48-10.27-9.14Z"/>
        <path class="cls-2" d="M130.97,145.63h4.92l-6.26,23.27h14.59l-1.23,4.43h-19.46l7.45-27.71Z"/>
        <path class="cls-2" d="M156.45,150.14h-8.84l1.23-4.51h22.52l-1.23,4.51h-8.8l-6.26,23.19h-4.88l6.26-23.19Z"/>
        <path class="cls-2" d="M176.31,145.63h4.92l-7.45,27.71h-4.92l7.45-27.71Z"/>
        <path class="cls-2" d="M188.6,145.63h4.88l4.84,13.1,11.89-13.1h5.51l-7.45,27.71h-4.88l5.35-19.87-12.21,13.06h-.16l-5.11-12.98-5.31,19.79h-4.8l7.45-27.71Z"/>
        <path class="cls-2" d="M232.36,145.43h4.68l4.72,27.9h-5l-1.07-6.69h-13.12l-4.6,6.69h-5.31l19.7-27.9ZM235.1,162.33l-1.78-11.2-7.77,11.2h9.55Z"/>
        <path class="cls-2" d="M254.88,150.14h-8.84l1.23-4.51h22.52l-1.23,4.51h-8.8l-6.26,23.19h-4.88l6.26-23.19Z"/>
        <path class="cls-2" d="M274.46,145.63h20.38l-1.19,4.35h-15.5l-1.94,7.24h13.76l-1.19,4.31h-13.72l-2.02,7.44h15.74l-1.19,4.35h-20.57l7.45-27.71Z"/>
        <path class="cls-2" d="M307.28,162.02c0-4.55,1.86-8.75,5.03-11.91,3.01-3.01,7.14-4.95,11.73-4.95,5.27,0,8.76,2.3,10.82,5.94l-4.04,2.73c-1.7-2.53-3.69-4.2-7.33-4.2-2.85,0-5.39,1.23-7.41,3.25-2.26,2.26-3.73,5.46-3.73,8.95,0,4.55,3.13,7.48,7.57,7.48,3.13,0,5.11-1.23,7.33-3.13l3.21,3.25c-2.66,2.53-5.87,4.39-10.66,4.39-7.14,0-12.53-4.51-12.53-11.8Z"/>
        <path class="cls-2" d="M341.45,145.63h4.92l-3.09,11.52h13.04l3.09-11.52h4.88l-7.45,27.71h-4.88l3.13-11.68h-13.04l-3.13,11.68h-4.92l7.45-27.71Z"/>
        <path class="cls-2" d="M380.93,145.43h4.68l4.72,27.9h-5l-1.07-6.69h-13.12l-4.6,6.69h-5.31l19.7-27.9ZM383.66,162.33l-1.78-11.2-7.77,11.2h9.55Z"/>
        <path class="cls-2" d="M401.66,145.63h4.92l-6.26,23.27h14.59l-1.23,4.43h-19.46l7.45-27.71Z"/>
        <path class="cls-2" d="M426.16,145.63h4.92l-6.26,23.27h14.59l-1.23,4.43h-19.46l7.45-27.71Z"/>
        <path class="cls-2" d="M450.65,145.63h20.38l-1.19,4.35h-15.5l-1.94,7.24h13.76l-1.19,4.31h-13.72l-2.02,7.44h15.74l-1.19,4.35h-20.57l7.45-27.71Z"/>
        <path class="cls-2" d="M476.81,145.63h4.52l9.39,19.59,5.31-19.59h4.8l-7.45,27.71h-4.08l-9.71-20.15-5.39,20.15h-4.84l7.45-27.71Z"/>
        <path class="cls-2" d="M502.7,161.9c0-4.39,1.86-8.55,5.03-11.72,3.05-3.05,7.25-5.03,12.17-5.03,5.83,0,9.16,2.33,10.98,4.91l-3.65,3.09c-1.62-1.94-3.81-3.52-7.69-3.52-3.21,0-6.03,1.31-8.13,3.4-2.22,2.22-3.61,5.38-3.61,8.71,0,4.91,3.37,7.6,7.93,7.6,2.54,0,4.44-.63,5.87-1.43l1.71-5.82h-7.1l1.15-4.23h11.81l-3.77,13.26c-2.85,1.7-5.91,2.69-9.99,2.69-6.5,0-12.73-4-12.73-11.91Z"/>
        <path class="cls-2" d="M538.97,145.63h20.38l-1.19,4.35h-15.5l-1.94,7.24h13.76l-1.19,4.31h-13.72l-2.02,7.44h15.74l-1.19,4.35h-20.57l7.45-27.71Z"/>
      </g>
    </g>
  </g>
</svg>