<?xml version="1.0" encoding="UTF-8"?>
<svg id="Capa_2" data-name="Capa 2" xmlns="http://www.w3.org/2000/svg" viewBox="0 0 512 508.6">
  <defs>
    <style>
      .cls-1 {
        fill: #fff;
      }

      .cls-2 {
        fill: #606060;
      }

      .cls-3 {
        fill: none;
        stroke: #000;
        stroke-linecap: round;
        stroke-linejoin: round;
        stroke-width: 2.76px;
      }

      .cls-4 {
        fill: #e1741b;
      }

      .cls-5 {
        fill: #f5e8dc;
      }

      .cls-6 {
        fill: #ef5e2d;
      }

      .cls-7 {
        fill: #dd5313;
      }
    </style>
  </defs>
  <g id="_01" data-name="01">
    <g>
      <path class="cls-1" d="M485.81,278.34c4.25-4.92,6.47-10.73,6.68-16.89,6.65-2.01,12.13-6.22,15.66-12.19,4.83-8.17,5.08-17.45,1.01-26.2,4.21-11.75,2.7-23.27-4.52-36.84-.2-.41-.42-.81-.64-1.22-.01-.02-.78-1.41-1.18-2.15-8.27-14.88-20.63-36.04-32.49-52.27-.76-1.04-1.52-2.08-2.16-2.91-7.34-9.72-13.62-16.31-19.57-20.3l-10.32-88.24c-.8-6.85-5.77-12.49-12.46-14.14-13.41-3.31-26.9-5-40.1-5-63.33,0-104.13,37.79-114.63,48.76-9.22-1.65-18.4-2.65-27.47-2.99-9.18-6.97-20.33-10.74-32.03-10.74-18.63,0-35.75,9.78-45.32,25.41-3.04,1.37-6,2.83-8.86,4.34-.74.39-1.47.84-2.21,1.24-1.15-2.64-2.76-5.07-4.8-7.12-4.08-4.08-9.39-6.43-15.07-6.75-.45-1.16-.97-2.3-1.62-3.41-4.2-7.18-12.04-11.64-20.45-11.64-4.56,0-8.92,1.34-12.62,3.87C58.95,69.54,28.02,111.76,13.51,159.88c-2.14,7.1-.91,14.5,3.39,20.28,4.28,5.77,11.16,9.26,18.51,9.49-2.03,7.23-3.76,14.55-5.19,21.95-3.25,16.86-4.92,33.91-4.95,50.68-.01,6.27,2.34,12.09,6.64,16.4,1.45,1.45,3.11,2.68,4.9,3.69-20.86,3.61-36.79,21.79-36.79,43.66,0,24.46,19.9,44.35,44.35,44.35,7.23,0,14.04-1.77,20.07-4.85.13,4.45.38,8.84.89,13,.21,1.88.48,3.75.77,5.64,5.75,36.87,25.18,69.91,54.71,93.05.06.05.13.1.19.15.6.49,1.18.94,1.7,1.32,25.77,19.57,56.54,29.91,89,29.91,7.86,0,15.71-.62,23.35-1.83,19.66-3.14,38.73-10.4,55.58-21.1,3.21.45,6.47.67,9.76.67,1.18,0,2.37-.03,3.56-.09,6.14,5.25,13.09,8.07,20.18,8.07,3.85,0,7.6-.82,11.17-2.44,9.21-4.19,14.9-12.56,16.13-23.03,1.23-.85,2.46-1.74,3.69-2.65,2.67.66,5.54,1.09,8.54,1.09,8.31,0,15.77-3.35,21.02-9.42,4.9-5.67,7.1-12.58,6.6-19.83,8.16-1.49,14.91-6.05,19.02-13,2.25-3.81,3.44-7.87,3.72-12.01,5.23,1.43,10.67,2.21,16.14,2.21h0c7.58,0,14.86-1.38,21.65-4.11,11.02-4.43,17.11-15.3,15.08-26.1,10.43-4.48,19.57-10.39,26.72-15.44,10.29-7.27,13.39-20.73,7.21-31.29-2.95-5.04-7.89-8.78-13.48-10.53.96-3.99,1.52-8.12,1.52-12.4,0-11.27-3.65-22.18-10.15-31.16,2.66-1.51,5.06-3.47,7.13-5.86Z"/>
      <g>
        <g>
          <circle class="cls-6" cx="435.87" cy="313.82" r="36.61" transform="translate(-1.92 624.95) rotate(-71.15)"/>
          <path class="cls-2" d="M165.31,77.87c-4.42,2.34-8.78,4.94-13.05,7.8-32.7,21.88-56.68,55.63-69.51,92.83-11.65,33.78-14.31,71.37-2.89,105.22,15.36,45.53,59.83,83.9,110.03,77.71,24.08-2.97,46.72-15.82,70.96-14.84,10.28.42,20.31,3.34,30.58,4.02,16.52,1.09,32.91-3.67,48.15-10.13,39.08-16.57,75.24-48.62,81.35-90.63,3.25-22.32-2.27-44.97-9.42-66.35-15.84-47.38-44.73-81.47-90.2-102.89-49.79-23.46-107.16-28.6-156-2.74Z"/>
          <circle class="cls-3" cx="44.54" cy="324.5" r="27.81"/>
          <path class="cls-6" d="M194.08,118.71c.19-.1.38-.2.56-.3,1.31-1.55,2.79-3.01,4.16-4.52,3.07-3.36,6.5-6.32,9.84-9.41,8.42-7.77,17.28-15.31,26.95-21.49,3.78-2.42,7.9-3.58,12.03-3.73-3.42-16.68-18.17-29.23-35.87-29.23-20.22,0-36.61,16.39-36.61,36.61,0,13.81,7.65,25.83,18.93,32.06Z"/>
          <g>
            <g>
              <path class="cls-6" d="M438.92,164.09l-4.91,3.58-2.51,1.85-16.77,12.27-2.48,1.82-18.12,13.26-2.37,1.74-57.99,42.44s-13.13-65.71-28.15-111.7c-4.99-15.28-9.35-27.96-12.99-38.11-.3-.91-.63-1.82-.97-2.7-6.65-18.56-10.45-27.71-10.45-27.71,0,0,53.49-62.9,140.8-41.31l3.28,28.1.33,2.76,13.29,113.72Z"/>
              <g>
                <path d="M425.63,50.38c-3.17,0-6.37.08-9.57.22-.94.03-1.82.08-2.76.17h-.03c-6.42.33-12.85.99-19.3,1.93-.91.14-1.82.28-2.73.41-7.86,1.21-15.69,2.87-23.49,4.91-.91.22-1.79.47-2.67.74-8.13,2.18-16.19,4.85-24.18,7.94-.88.33-1.74.66-2.59,1.02-7.94,3.14-15.8,6.73-23.55,10.73-.83.41-1.65.85-2.48,1.3-6.65,3.5-13.21,7.33-19.63,11.5-.3-.91-.63-1.82-.97-2.7,6.76-4.3,13.68-8.3,20.68-11.94,36.07-18.89,75.09-28.9,112.95-28.98l.33,2.76Z"/>
                <path d="M352.09,217.57c-.6,0-1.16-.4-1.33-1.01l-38.96-138.46c-.21-.73.22-1.49.95-1.7.73-.2,1.49.22,1.7.95l38.96,138.46c.21.73-.22,1.49-.95,1.7-.12.03-.25.05-.37.05Z"/>
                <path d="M373.21,208.18c-.62,0-1.19-.42-1.34-1.06l-33.79-140.34c-.18-.74.28-1.49,1.02-1.66.75-.18,1.49.28,1.66,1.02l33.79,140.34c.18.74-.28,1.49-1.02,1.66-.11.03-.22.04-.32.04Z"/>
                <path d="M392.92,199.27c-.65,0-1.23-.46-1.35-1.12l-26.75-140.81c-.14-.75.35-1.47,1.1-1.61.75-.14,1.47.35,1.61,1.1l26.75,140.81c.14.75-.35,1.47-1.1,1.61-.09.02-.17.02-.26.02Z"/>
                <path d="M414.51,190.35c-.67,0-1.25-.48-1.36-1.16l-22.06-137.05c-.12-.75.39-1.46,1.14-1.58.74-.13,1.46.39,1.58,1.14l22.06,137.05c.12.75-.39,1.46-1.14,1.58-.07.01-.15.02-.22.02Z"/>
                <path d="M434.22,179.55c-.67,0-1.26-.49-1.36-1.17l-19.71-128.6c-.12-.75.4-1.46,1.15-1.57.75-.12,1.46.4,1.57,1.15l19.71,128.6c.12.75-.4,1.46-1.15,1.57-.07.01-.14.02-.21.02Z"/>
              </g>
            </g>
            <path d="M449.24,275.8c-39.4,53.49-36.59,104.2-82.59,155.82-41.75,46.85-78.92,40.04-95.9,27.11-1.74-1.32-3.25-2.7-4.55-4.11-.08-.08-.14-.17-.22-.25-8.55-10.4,19.36-57.05,36.84-97.75.33-.8.66-1.6,1.02-2.37,1.54-3.69,3.01-7.33,4.33-10.86.8-2.15,1.57-4.25,2.26-6.37.63-1.82,1.21-3.61,1.74-5.35.28-.91.52-1.82.77-2.73.88-3.14,1.57-6.15,2.07-9.02.66-3.89,1.19-7.83,1.52-11.77.08-.91.17-1.85.22-2.78.58-7.97.58-15.94.19-23.55-.03-.94-.08-1.85-.14-2.78-.8-12.77-2.56-24.4-4.3-33.37-2.23-11.77.77-23.91,8.16-33.34l4.83-5.65.91-1.05,1.93,5.1s6.75,13.21,7.7,14.89c0,0,.42,3.21,1.05,2.08,0,0,1.05-1.52,1.06-1.53,1.05-1.51,1.61-3.35,2.65-4.88,1.01-1.48,1.96-3.04,2.97-4.55,2.04-3.04,4.29-5.93,6.71-8.67,4.31-4.85,9.41-9.89,15.26-12.82,3.99-2,8.38-2.95,12.57-4.41,4.45-1.55,8.81-3.44,13.22-5.12,8.62-3.3,17.13-6.88,25.31-11.17,7.26-3.8,14.43-7.92,21.17-12.58l-.14-1.35-4.8-42.99c5.13-1.19,13.26,6.78,22.09,18.47.66.85,1.32,1.76,1.99,2.67,11.17,15.28,23.16,35.74,31.41,50.57.36.66.72,1.32,1.08,1.96.17.3.33.58.47.88,14.2,26.42-1.85,30.69-40.84,83.61Z"/>
            <g>
              <path class="cls-5" d="M438.92,162.99c-12.93,12.33-54.38,26.25-66.79,30.25-.08.03-.19.06-.28.08-.03,0-.03.03-.03.03-2.15.69-4.03,1.63-5.63,2.76-1.02.72-2.01,1.46-3.01,2.23-.03.03-.06.06-.08.06-14.75,11.58-25.67,28.21-30.28,46.24-.19.72-.36,1.43-.5,2.15-.22.88-.41,1.79-.58,2.7-1.93,9.62-2.4,19.58-2.9,29.28-.03.3-.03.58-.06.88-.03.94-.08,1.88-.11,2.84-.28,4.96-.58,10.01-1.1,15-.39,3.56-.88,6.95-1.52,10.18-.19.97-.39,1.88-.58,2.78-1.63,7.22-3.92,13.62-6.87,19.16-.47.88-.94,1.74-1.43,2.56-2.56,4.33-5.6,8.05-9.04,11.2.8-2.15,1.57-4.25,2.26-6.34t0-.03c1.38-1.6,2.62-3.34,3.78-5.18.52-.83,1.05-1.71,1.52-2.62,3.12-5.54,5.49-12.08,7.11-19.55.22-.91.41-1.82.58-2.76.61-3.09,1.1-6.31,1.46-9.71.52-4.96.83-10.04,1.08-15.03.06-.94.11-1.88.17-2.81,0-.25.03-.47.03-.72.55-11.47,1.13-23.33,4.03-34.66,1.16-4.55,2.73-9.04,4.63-13.37.66-1.52,1.38-3.01,2.15-4.49.99-2.01,2.1-3.97,3.28-5.87v-.03c6.26-10.31,14.59-19.41,24.38-26.36,1.9-1.32,4.16-2.43,6.7-3.25,12.24-3.92,53.19-17.68,65.71-29.62.25-.22.52-.36.83-.36.41-.06.83.11,1.13.41.52.55.5,1.43-.06,1.96Z"/>
              <path class="cls-5" d="M352.39,286.08c-.03.96-.11,1.93-.19,2.95-.69,8.24-2.62,17.73-6.09,27.8-.28.88-.58,1.76-.94,2.67-1.9,5.32-4.27,10.75-7.11,16.27-.41.83-.83,1.63-1.3,2.45-.85,1.63-1.76,3.28-2.73,4.91-6.31,10.78-13.02,16.63-19.94,17.4-.52.06-1.02.08-1.52.08-5.57,0-9.21-3.45-9.76-4,.33-.8.66-1.6,1.02-2.37.36,0,.66.14.91.39.17.17,3.61,3.78,9.1,3.14,5.9-.69,12.05-6.23,17.81-16.02.88-1.54,1.76-3.06,2.56-4.6.47-.83.88-1.65,1.3-2.48,2.87-5.57,5.27-11.17,7.22-16.65.33-.88.63-1.79.91-2.67,3.31-9.9,5.21-19.33,5.85-27.49.06-.99.11-1.96.17-2.9.25-5.82-.22-10.89-1.27-14.89-4.19-15.91-10.73-19.36-16.63-20.57-.06,0-.08-.03-.14-.03-.74-.17-1.21-.88-1.08-1.63.14-.74.88-1.24,1.63-1.08.05,0,.11.03.17.03,6.67,1.38,14.12,5.18,18.72,22.56,1.19,4.41,1.68,10.12,1.32,16.74Z"/>
              <path class="cls-5" d="M338.05,335.77c-.41.83-.83,1.63-1.3,2.45-.85-.39-1.71-.74-2.54-1.08-6.01-2.48-11.64-4.14-17.01-4.96-1.02-.17-2.01-.28-3.01-.36-.69-.08-1.38-.14-2.04-.17.28-.91.52-1.82.77-2.73.94.06,1.85.17,2.78.28.97.11,1.96.25,2.92.41,5.35.94,10.95,2.62,16.88,5.05.83.36,1.68.74,2.54,1.1Z"/>
              <path class="cls-5" d="M346.1,316.83c-.28.88-.58,1.76-.94,2.67-.8-.52-1.6-1.02-2.43-1.49-5.9-3.5-11.86-5.9-17.23-7.56-.91-.3-1.79-.55-2.67-.8-2.26-.61-4.38-1.1-6.31-1.52.08-.91.17-1.85.22-2.79,2.04.39,4.27.88,6.67,1.54.85.25,1.76.5,2.67.77,5.43,1.68,11.5,4.14,17.57,7.67.83.47,1.63.97,2.45,1.49Z"/>
              <path class="cls-5" d="M352.39,286.08c-.03.96-.11,1.93-.19,2.95-.91-.41-1.79-.8-2.7-1.19-7.5-2.98-14.59-4.58-20.79-5.35-.94-.14-1.85-.22-2.76-.33-3.34-.3-6.4-.41-9.02-.36-.03-.94-.08-1.85-.14-2.79,2.7-.08,5.85,0,9.32.33.88.08,1.76.19,2.7.3,6.2.77,13.29,2.34,20.85,5.29.91.36,1.82.72,2.73,1.13Z"/>
              <path class="cls-5" d="M336.13,231.65c-.71,0-1.31-.54-1.37-1.25-1.35-14.8-9.31-23.75-9.39-23.84-.51-.56-.47-1.44.09-1.95.57-.51,1.44-.47,1.95.09.35.39,8.66,9.68,10.09,25.44.07.76-.49,1.43-1.25,1.5-.04,0-.08,0-.13,0Z"/>
            </g>
            <g>
              <path class="cls-5" d="M490.07,192.19c-6.31,11.11-14.42,21.29-22.36,31.24-4.85,6.09-9.9,12.41-14.39,18.81-2.56,3.61-4.96,7.25-7.14,10.86-3.14,5.02-6.26,10.59-9.62,17.1-2.29,4.44-4.49,9.02-6.76,14.06-2.56,5.51-5.1,11.47-8.05,18.7-1.6,3.89-3.12,7.78-4.63,11.72-1.99,4.99-3.89,9.98-5.79,14.97l-1.76,4.6c-11.77,30.66-22.91,58.02-40.12,82.42-10.06,14.34-20.52,24.84-31.93,32.12-13.35,8.47-29.12,12.82-44.86,12.82-7.39,0-14.75-.97-21.89-2.9-1.74-1.32-3.25-2.7-4.55-4.11-.08-.08-.14-.17-.22-.25,22.94,8.11,49.47,5.16,70.04-7.89,11.11-7.09,21.29-17.34,31.16-31.41,17.01-24.13,28.1-51.32,39.79-81.81l.33-.83,1.43-3.78c1.93-4.99,3.83-10.01,5.79-14.97.08-.19.14-.39.22-.58,1.46-3.75,2.95-7.5,4.47-11.2.08-.19.17-.39.22-.55,2.87-7,5.35-12.82,7.86-18.25.06-.14.14-.28.19-.41,2.21-4.88,4.38-9.43,6.65-13.76.06-.11.14-.25.19-.36,3.28-6.42,6.4-11.94,9.51-16.9.06-.08.11-.17.14-.25,2.18-3.58,4.55-7.2,7.09-10.78,4.55-6.45,9.62-12.79,14.5-18.92,8.24-10.31,16.66-20.87,22.97-32.37.36.66.72,1.32,1.08,1.96.17.3.33.58.47.88Z"/>
              <path class="cls-5" d="M415.82,314.18c-2.56,6.51-5.05,13.04-7.56,19.58-.58-.94-3.5-4.99-16.27-16.19-15.03-13.15-25.34-17.84-25.34-17.84l10.31-15.03s21.04,10.75,38.85,29.48Z"/>
              <path class="cls-5" d="M428.53,283.69c-2.84,6.18-5.49,12.44-8.05,18.75-2.45-2.56-6.18-6.18-11.83-11.25-15.03-13.43-25.34-18.23-25.34-18.23l10.31-15.36s18.09,9.46,34.91,26.09Z"/>
              <path class="cls-5" d="M444.99,252.39c-3.47,5.57-6.65,11.33-9.65,17.18-2.37-2.37-5.63-5.46-10.04-9.43-15-13.46-25.34-18.25-25.34-18.25l10.34-15.36s17.92,9.38,34.69,25.87Z"/>
            </g>
            <g>
              <path d="M309.38,465.89s8.92,14.08,19.24,9.39c10.33-4.69,5.63-19.71,5.63-19.71l-24.88,10.33Z"/>
              <path d="M350.93,445.03s13.99,9.06,21.41.48-3.13-20.26-3.13-20.26l-18.28,19.78Z"/>
              <path d="M375.08,418.41s15.38,6.43,21.15-3.34c5.77-9.76-6.68-19.38-6.68-19.38l-14.47,22.72Z"/>
            </g>
            <g>
              <path d="M434.2,289.82s14.62,8,21.38-1.1c6.76-9.11-4.61-19.98-4.61-19.98l-16.77,21.08Z"/>
              <path d="M452.07,265.5s13.99,9.06,21.41.48c7.42-8.58-3.13-20.26-3.13-20.26l-18.28,19.78Z"/>
              <path d="M472.94,242.64s15.38,6.43,21.15-3.34c5.77-9.76-6.68-19.38-6.68-19.38l-14.47,22.72Z"/>
            </g>
            <path class="cls-5" d="M468.29,220.54l-2.29,1.54c-17.01-24.73-20.87-57.8-10.86-85.98.66.85,1.32,1.76,1.99,2.67-8.93,27-4.99,58.24,11.17,81.76Z"/>
          </g>
          <g>
            <path class="cls-2" d="M55.78,260.78c0-6.84.3-13.68.88-20.49.3-3.44.67-6.87,1.11-10.29.03-.2.04-.4.08-.59.02-.09-.22,1.62-.11.85.06-.39.11-.79.16-1.18.12-.85.25-1.71.38-2.56.26-1.71.54-3.41.83-5.11,2.34-13.48,5.81-26.75,10.31-39.67,1.14-3.26,2.34-6.5,3.61-9.71.61-1.54,1.24-3.08,1.88-4.61.59-1.4-.47,1.1,0,0,.16-.37.31-.73.47-1.1.34-.79.69-1.58,1.04-2.37,2.78-6.25,5.81-12.39,9.08-18.4,3.27-6.01,6.78-11.88,10.53-17.61,1.89-2.89,3.84-5.74,5.85-8.55.97-1.35,1.94-2.69,2.94-4.02.52-.69,1.04-1.38,1.56-2.07.24-.32.48-.63.73-.95.45-.59-.51.66-.47.61.17-.21.33-.42.49-.63,8.42-10.77,17.74-20.85,27.86-30.05,1.28-1.16,2.57-2.31,3.87-3.44,2.73-2.38,2.61-7.35,0-9.75-2.91-2.67-6.84-2.53-9.75,0-10.42,9.07-20.04,19.04-28.75,29.75-9.05,11.12-17.23,22.93-24.33,35.38-7.07,12.4-13.08,25.41-18.07,38.79-4.85,13-8.64,26.4-11.28,40.03-2.72,14.02-4.32,28.29-4.63,42.57-.04,1.73-.05,3.45-.06,5.18,0,3.61,3.17,7.06,6.89,6.89,3.74-.17,6.89-3.03,6.89-6.89h0Z"/>
            <path class="cls-2" d="M42.83,166.79c1.25-4.16,2.63-8.27,4.15-12.34.74-1.97,1.51-3.93,2.31-5.87.1-.24.2-.49.3-.73.43-1.05-.2.47-.24.56.21-.48.41-.97.62-1.45.44-1.03.9-2.05,1.36-3.06,3.56-7.84,7.64-15.45,12.2-22.76,2.3-3.68,4.71-7.29,7.24-10.82,1.23-1.71,2.49-3.4,3.76-5.07.68-.9-.29.38-.35.46.16-.21.32-.42.49-.62.32-.41.65-.83.98-1.24.7-.87,1.4-1.74,2.11-2.61,5.47-6.65,11.38-12.95,17.67-18.83,3.56-3.32,7.23-6.51,11.03-9.56.46-.37.92-.74,1.39-1.1.21-.16.41-.33.62-.49.85-.66.12-.08-.3.23.96-.69,1.88-1.44,2.83-2.14,2.01-1.49,4.05-2.93,6.11-4.34,2.97-2.03,4.59-6.15,2.47-9.43-1.91-2.96-6.25-4.65-9.43-2.47-14.88,10.16-28.44,22.23-40.12,35.96-11.67,13.73-21.65,28.89-29.36,45.19-4.41,9.33-8.18,18.99-11.14,28.88-1.03,3.45,1.24,7.67,4.81,8.48,3.71.85,7.37-1.12,8.48-4.81h0Z"/>
          </g>
          <g>
            <path class="cls-2" d="M415.66,368.57c8.98,4.96,19.12,6,29.15,4.61,9.38-1.3,18.27-5.25,26.38-10.03,4.49-2.65,8.79-5.6,13.05-8.61,1.5-1.06,2.67-2.3,3.17-4.12.45-1.65.25-3.85-.69-5.31-1.88-2.91-6.28-4.7-9.43-2.47-7.17,5.07-14.49,9.92-22.52,13.52-.18.08-.91.38,0,0,.97-.4.04-.02-.2.08-.48.19-.96.38-1.45.57-1.04.39-2.09.76-3.15,1.1-1.94.62-3.91,1.12-5.91,1.51-.55.11-1.1.21-1.66.29-.21.03-.42.06-.62.1-.78.13.86-.12.79-.1-1.07.24-2.26.24-3.35.3-2.02.11-4.05.08-6.06-.09-.55-.05-2.62-.46-.44-.02-.54-.11-1.09-.17-1.64-.28-1.08-.21-2.16-.46-3.22-.77-1.06-.31-2.1-.68-3.13-1.07-1.1-.42.43.14.5.21-.2-.21-.69-.31-.94-.44-.56-.27-1.11-.56-1.66-.87-3.16-1.74-7.66-.87-9.43,2.47-1.71,3.24-.9,7.57,2.47,9.43h0Z"/>
            <path class="cls-2" d="M406.11,389.95c11.37,7.65,26.97,9.43,39.7,4.28,1.73-.7,3.14-1.49,4.12-3.17.86-1.48,1.23-3.66.69-5.31-.54-1.67-1.57-3.28-3.17-4.12-1.53-.81-3.63-1.38-5.31-.69-1.36.55-2.75,1.03-4.16,1.41-1.33.36-2.91.87-4.3.88.49,0,1.6-.2.44-.08-.33.03-.66.06-1,.09-.73.06-1.46.09-2.2.1-1.47.03-2.93-.03-4.39-.18-.33-.03-.66-.1-.99-.11,2.02.07.8.11.25.01-.66-.11-1.31-.24-1.96-.39-1.43-.32-2.84-.72-4.22-1.21-.62-.22-1.24-.52-1.87-.71,1.88.59.66.27.18.05-.36-.17-.72-.34-1.08-.53-1.31-.67-2.56-1.42-3.78-2.24-3-2.02-7.77-.68-9.43,2.47-1.84,3.48-.73,7.28,2.47,9.43h0Z"/>
          </g>
          <g>
            <g>
              <path class="cls-7" d="M179.9,205.47s9.68-3.42,13.38-3.99c-.06,0,2.43,21.23,7.7,28.78-.14-.15,13.1-4.43,13.1-4.43,0,0,2.56,5.85,3.49,9.2,0,.13-12.1,5.69-24.93,7.47,0,0-9.83-18.02-12.75-37.04Z"/>
              <path class="cls-7" d="M254.71,206.16c-6.51,0-11.79,5.38-11.79,12s5.27,12,11.79,12,11.78-5.37,11.78-12-5.27-12-11.78-12ZM254.39,222.31c-1.33,0-2.43-1.11-2.43-2.48s1.1-2.48,2.43-2.48,2.41,1.12,2.41,2.48-1.09,2.48-2.41,2.48Z"/>
              <path class="cls-7" d="M220.55,202.4s14.31-2.9,24.1-3.76c.11.11,2.05,8.71,2.05,8.71,0,0-6.13,1.51-6.88,1.61.21-.1,2.58,14.86,2.48,16.36,0-.1-8.51,1.4-10.99,1.51,0,0-2.59-14.84-2.59-15.92,0,.21-7.73.54-7.73.54,0,0-.76-7.95-.44-9.04Z"/>
              <path class="cls-7" d="M214.74,204.12c-6.71,0-12.15,5.75-12.15,12.86s5.45,12.86,12.15,12.86,12.16-5.76,12.16-12.86-5.45-12.86-12.16-12.86ZM215.23,221.54c-1.33,0-2.41-1.25-2.41-2.79s1.08-2.8,2.41-2.8,2.41,1.26,2.41,2.8-1.08,2.79-2.41,2.79Z"/>
            </g>
            <g>
              <path class="cls-7" d="M216.46,161.68c-5.95,5.1-12.15,10.47-18.41,15.91h67.96c-1.54-2.13-6.26-8.61-11.89-15.91h-37.65Z"/>
              <g>
                <path class="cls-7" d="M297.5,173.56l-14.4-27.41-.06.03c-8.53-13.22-14.39-18.61-20.25-18.61-2.44,0-5.11.9-8.42,2.83-3.33,2.03-9.93,7.1-19.59,15.07,10.67,12.49,27.37,35.46,34.24,45.43.32.55.61.99.91,1.4,2.05,3.27,5.67,5.11,9.96,5.11,3.05,0,6.2-.93,9.13-2.68,7.89-4.71,11.77-14.02,8.67-20.74-.12-.29-.19-.41-.2-.43Z"/>
                <path class="cls-4" d="M158.67,206.49c24.14-21.14,54.18-47.45,74.26-64.05,10.26-8.48,16.97-13.65,20.52-15.82,3.61-2.11,6.57-3.08,9.35-3.08,5.13,0,9.93,3.25,16.01,11.16l-18.62-40.78c-.62-1.14-1.42-2.18-1.89-2.63-2.61-2.53-6.16-3.86-10.25-3.86-2.85,0-5.85.68-8.69,1.95-2.8,1.17-5.57,2.94-8.24,5.27L101.04,223.95l.03.03-.71.68c-3.35,3.05-5.49,7.07-5.86,11.02-.31,3.25.6,6.22,2.54,8.35,2.34,2.57,6.02,3.76,10.07,3.22,3.29-.44,6.61-1.98,9.36-4.35l6.66-5.76-.58.75c8.07-6.84,21.33-18.46,36.12-31.41Z"/>
              </g>
            </g>
          </g>
        </g>
        <g>
          <path class="cls-5" d="M342.7,359.71c0,5.07-.3,10.05-.87,14.95-.06.72-.15,1.44-.25,2.13-4.48,34.44-22.36,64.68-48.27,85.26-17.21,13.75-37.99,23.21-60.71,26.84-6.76,1.08-13.68,1.63-20.74,1.63-29.69,0-57.05-9.88-78.99-26.54-.57-.42-1.12-.84-1.67-1.31h-.02c-25.49-19.98-43.35-49.18-48.57-82.58-.25-1.65-.49-3.29-.68-4.96-.61-5.05-.91-10.2-.91-15.41,0-10.16,1.16-20.06,3.36-29.54v-.02c.34-1.5.72-3,1.12-4.48,10.14-37.73,36.72-68.71,71.58-84.8.68-.32,1.35-.63,2.03-.93,16.13-7.12,33.97-11.06,52.75-11.06s38.28,4.33,55.01,12.1c18.48,8.55,34.61,21.31,47.15,37.04,17.95,22.38,28.67,50.78,28.67,81.7Z"/>
          <path d="M112.31,411.1l34.5-21.56s23.36,24.44,46.36,34.14l-6.11,43.13s-24.08,4.31-50.68-8.99c0,0-19.41-25.88-24.08-46.72Z"/>
          <path d="M123.45,295.73l35.58-43.13,50.68,6.83s-3.23,37.02-1.44,48.52c0,0-40.97,15.45-54.27,25.16,0,0-22.64-18.33-30.55-37.38Z"/>
          <path d="M248.89,400.31l6.11-56.43,48.88-16.53s16.17,20.13,20.85,48.88c0,0-23.36,39.54-34.5,46.72l-41.33-22.64Z"/>
          <path d="M314.03,278.01l-9.35,2.26-1.52.36c-.21-.32-.42-.65-.68-.99v-.02c-8.24-11.72-29.73-25.11-36.02-28.86-1.12-.68-1.75-1.03-1.75-1.03l.27-1.1,1.9-7.64c18.48,8.55,34.61,21.31,47.15,37.04Z"/>
          <path d="M293.31,462.06c-17.21,13.75-37.99,23.21-60.71,26.84l-3.67-3.08-3.4-2.83s.21-.04.61-.13h.02c4.88-.95,36.76-7.66,55.32-23.5.04-.02.06-.06.11-.08l2.05.49,9.67,2.3Z"/>
          <path d="M203.93,263.77l-.22-1.2c.56-1.27,22.1-15.71,62.83-13.9l-.09,2.11c-40.68-1.79-60.8,12.71-60.95,12.86l-.73-.71-.84.84Z"/>
          <path d="M304.57,331.45l-2.09-.29c3.53-25.08-.32-54.41-.36-54.7l2.09-.28c.04.3,3.93,29.91.36,55.28Z"/>
          <path d="M255.97,346.7c-.2-.25-20.03-25.12-55.28-39.57l.8-1.95c35.79,14.67,55.94,39.97,56.14,40.22l-1.66,1.31Z"/>
          <path d="M145.76,393.95c-.04-.37-3.5-37.58,7.26-63.76l1.95.8c-10.56,25.7-7.15,62.39-7.11,62.75l-2.1.2Z"/>
          <path d="M126.37,296.34s-.82.34-2.2,1.03c-5.85,2.94-22.53,12.44-39.78,32.77.34-1.5.72-3,1.12-4.48,17.19-19.26,33.36-28.06,38.43-30.53,1.01-.49,1.58-.72,1.63-.74l.8,1.94Z"/>
          <path d="M160.81,256.45l-2.11.21-.34-3.27-1.27-12.52c.68-.32,1.35-.63,2.03-.93l1.31,12.84.38,3.67Z"/>
          <path d="M115.43,412.39l-1.22,1.73c-.49-.34-.95-.68-1.41-1.03-13.81-10.24-24.16-23.82-30.17-33-.25-1.65-.49-3.29-.68-4.96,5.22,8.49,15.98,23.99,31.1,35.52.78.59,1.58,1.18,2.39,1.75Z"/>
          <path d="M138.01,455.49l-1.46,2.41-3.67,6.08c-.57-.42-1.12-.84-1.67-1.31l3.95-6.55,1.06-1.73,1.79,1.1Z"/>
          <path d="M232.95,486.55c-15.49-1.8-48.59-20.19-49.99-20.97l1.03-1.84c.34.19,34.14,18.97,49.21,20.72l-.24,2.1Z"/>
          <path d="M191.16,425.44l-.28-2.09c.35-.05,34.86-4.87,58.78-24.21l1.33,1.64c-24.39,19.73-59.48,24.62-59.83,24.67Z"/>
          <path d="M282.52,461.93l-1.85-1.02c8.75-15.75,8.85-42.71,8.85-42.98h2.11c0,1.13-.1,27.77-9.12,44Z"/>
          <path d="M341.84,374.66c-.07.72-.17,1.44-.29,2.13l-19.09.51-.02-1.06-.02-.06-.02-.99,19.45-.53Z"/>
        </g>
      </g>
    </g>
  </g>
</svg>