<?xml version="1.0" encoding="UTF-8"?>
<svg id="Capa_2" data-name="Capa 2" xmlns="http://www.w3.org/2000/svg" viewBox="0 0 400.3 512">
  <defs>
    <style>
      .cls-1 {
        fill: #fff;
      }

      .cls-2 {
        stroke-width: 1.51px;
      }

      .cls-2, .cls-3, .cls-4 {
        fill: none;
        stroke: #000;
        stroke-linecap: round;
        stroke-linejoin: round;
      }

      .cls-3 {
        stroke-width: 2.47px;
      }

      .cls-5, .cls-6 {
        fill: #f5e8dc;
      }

      .cls-7 {
        fill: #ef5e2d;
      }

      .cls-8 {
        fill: #37a462;
      }

      .cls-4 {
        stroke-width: 2.46px;
      }

      .cls-6 {
        opacity: .4;
      }
    </style>
  </defs>
  <g id="_01" data-name="01">
    <g>
      <g>
        <g>
          <path class="cls-1" d="M395.51,147.66c7.69-34.26,6.11-67.25-4.61-95.58-7.93-20.99-19.87-35.99-35.56-44.59-9.03-4.9-19.54-7.49-30.41-7.49-13.76,0-27.55,4.19-38.83,11.79-7.48,5.04-14.12,11.68-19.53,19.5-2.89-.15-5.82-.22-8.76-.22-13.51,0-27.56,1.53-41.75,4.54-5.83,1.24-11.69,2.74-17.42,4.46-10.12,3.03-20.14,6.95-29.89,11.67-.36-1.04-.74-2.07-1.14-3.09-5.91-15.23-16.14-28.32-28.8-36.85C127.53,4.19,113.75,0,99.99,0c-10.87,0-21.38,2.59-30.43,7.51-15.64,8.54-27.6,23.53-35.57,44.57-12.49,33.07-12.44,72.67-.06,112.47-.42-.03-.84-.09-1.25-.09-8.45,0-16.03,5.35-19.31,13.63C-.44,213.02-3.63,251.24,4.16,288.62c1.93,9.26,10.4,15.97,20.15,15.97h0c1.82,0,3.61-.24,5.34-.72.2-.06.39-.13.59-.19,2.98,10.24,6.85,20.65,11.6,31,3.18,6.93,10.41,11.41,18.4,11.41,3.7,0,7.3-.96,10.39-2.77.12-.07.25-.15.37-.22,5.27,6.75,11.19,12.87,17.6,18.21-12.27,6.42-20.66,19.27-20.66,34.05,0,18.9,13.74,34.66,31.75,37.82l6.97,65.83c.78,7.38,7.01,12.99,14.43,12.99h179.16c7.25,0,13.39-5.35,14.38-12.53l13.13-94.99c.58-4.16-.68-8.36-3.43-11.52-2.76-3.16-6.75-4.98-10.94-4.98h-28.07c-.35-.55-.75-1.1-1.15-1.65,16.41-4.36,28.56-19.31,28.56-37.07,0-4.78-.92-9.34-2.52-13.56.67.07,1.34.11,2.01.11h0c3.28,0,6.46-.78,9.47-2.32,30.3-15.51,49.67-42.9,68.44-71.98,4.07-6.31,4.41-13.92.91-20.35-1.87-3.44-4.74-6.23-8.12-8.14,11.92-27.36,16.47-57.33,12.59-85.37Z"/>
          <g>
            <g>
              <path class="cls-8" d="M216.42,49.52c-5.54,1.18-10.98,2.58-16.27,4.16-38.71,11.6-73.21,36.21-98.59,67.46-25.34,31.2-41.5,69.76-45.98,109.7-3.13,27.89-.47,56.95,11.48,82.34,11.95,25.4,33.92,46.75,60.95,54.32,18.47,5.18,39.32,3.51,55.41-6.93,10.92-7.09,19.11-17.69,29.55-25.47,21.06-15.69,48.79-18.38,73.2-28.04,29.07-11.5,53.6-33.33,70.16-59.84,19.86-31.77,28.46-71.1,20.4-107.7-7.23-32.83-29.03-61.71-58-78.57-30.69-17.85-68.36-18.65-102.3-11.44Z"/>
              <g>
                <circle class="cls-8" cx="271.67" cy="348.97" r="23.88"/>
                <circle class="cls-8" cx="103.68" cy="395.08" r="23.88"/>
              </g>
              <g>
                <path class="cls-8" d="M62.82,322.24c-15.18-33.04-20.56-70.57-15.75-106.59,1.36-10.21,3.64-20.3,6.61-30.16,2.25-7.47-9.42-10.66-11.66-3.22-11.21,37.17-11.54,77.48-1.16,114.88,2.97,10.7,6.88,21.11,11.52,31.2,1.36,2.97,5.65,3.7,8.27,2.17,3.05-1.78,3.54-5.29,2.17-8.27h0Z"/>
                <path class="cls-8" d="M27.38,282.16c-6.67-32-3.51-65.44,8.49-95.81,1.2-3.04-1.32-6.64-4.22-7.44-3.44-.94-6.23,1.17-7.44,4.22-12.8,32.38-15.59,68.19-8.49,102.24.67,3.2,4.43,5.05,7.44,4.22,3.32-.91,4.89-4.23,4.22-7.44h0Z"/>
              </g>
              <path class="cls-8" d="M312.42,320.28c28.02-14.34,46.25-41.2,62.86-66.93,4.23-6.56-6.23-12.63-10.44-6.1-15.52,24.04-32.32,49.19-58.52,62.59-6.93,3.55-.82,13.99,6.1,10.44h0Z"/>
              <g>
                <g>
                  <g>
                    <path class="cls-7" d="M374.66,56.92c-6.68-17.68-16.42-30.12-28.91-36.96-16.18-8.78-37.95-7.38-54.21,3.58-10.38,6.99-18.53,17.66-23.34,30.07-.72,1.83,2.36,3.81,1.8,5.71-.76,2.57-5.1,5.1-5.57,7.77-.07.34-.12.7-.19,1.04h-108.9c-.05-.34-.12-.7-.17-1.04-.4-2.31-4.75-3.88-5.37-6.12-.63-2.27,2.47-5.19,1.62-7.36-4.81-12.41-13.01-23.08-23.39-30.07-16.23-10.96-38-12.36-54.16-3.58-12.53,6.85-22.25,19.28-28.95,36.96-12.26,32.46-11.15,72.16,3.14,111.85,8.32,23,19.57,42.52,33.48,57.91,15.75,17.45,36.29,31.23,59.68,40.05,1.51.57,2.32-1.98,3.85-1.45,2.08.73,2.99,1.46,5.15,2.16,4.55,1.48,11.05,6.09,15.4,7.86,6,4.79,11.93,9.05,17.34,12.68.48.34.97.68,1.45,1.04.05.07.15.17.19.27l.1-.07c11.56,8.51,18.43,22.04,18.43,36.48v22.91c0,13.52-8.18,25.74-20.73,30.82-5.97,2.42-11.95,4.67-16.84,6.34-17.01,5.66-17.01,21.09-17.01,21.09,0-.73,56.99-1.91,62.8-2.03,5.83.12,62.8,1.31,62.8,2.03,0,0,0-15.43-16.98-21.09-5.06-1.69-11.22-4.09-17.39-6.56-12.53-5.1-20.68-17.3-20.68-30.82v-24.04c0-15,7.38-29.08,19.81-37.47,5.13-3.48,10.67-7.52,16.28-12.05,1.57-.63,3.19-1.21,4.81-1.79,2.47-.87,9.44-6.77,11.93-7.59,2.15-.7-.22,3.67,1.86,2.94,2.54-.87,5.08-1.81,7.55-2.83,22.18-8.83,41.63-22.16,56.7-38.87,13.91-15.38,25.16-34.91,33.48-57.91,14.3-39.69,15.43-79.39,3.14-111.85ZM125.39,232.34c5.2,8.01,11.2,15.29,17.46,22.01-2.33-.93-2.73,2.08-4.99,1.05-2.82-1.29-7.5-6.66-10.21-8.1-14.22-7.59-26.82-17.29-37.12-28.72-12.87-14.25-23.29-32.37-31.06-53.92-13.38-36.96-14.49-73.71-3.24-103.46,3.87-10.26,11.1-23.87,23.42-30.62,12.31-6.68,29.03-5.49,41.63,2.98,7.11,4.81,12.92,11.83,16.91,20.05,1.11,2.26,5.76,4.19,6.57,6.63.69,2.09-2.43,4.65-1.97,6.84.1.34.19.7.24,1.04h-38.46s-.39,4.84-.8,12.92c-.05.97-.12,1.96-.15,3.02-1.45,33.62-1.94,111.8,21.77,148.28ZM360.14,164.66c-7.76,21.55-18.24,39.67-31.08,53.92-9.43,10.47-20.8,19.5-33.55,26.78-3.1,1.76-11.07,10.35-14.32,11.9-1.92.92.93-5.13-1.04-4.28-.8.34-1.62.68-2.44,1.02,6.12-6.63,12-13.79,17.08-21.65,23.71-36.48,23.25-114.66,21.79-148.28-.02-1.06-.07-2.06-.15-3.02-.36-8.08-.77-12.92-.77-12.92h-39.09c.07-.34.12-.7.22-1.04.5-2.37-2.47-5.05-1.69-7.3.77-2.25,5.29-4.08,6.31-6.17,3.97-8.22,9.77-15.24,16.91-20.05,12.58-8.47,29.32-9.65,41.63-2.98,12.34,6.75,19.52,20.37,23.39,30.62,11.3,29.75,10.14,66.5-3.19,103.46Z"/>
                    <path d="M316.59,84.05H103.62c.03-1.06.09-2.06.15-3.02h212.67c.06.97.12,1.97.15,3.02Z"/>
                    <g>
                      <path class="cls-5" d="M295.76,162.82l-.55.02c-6.13.22-11.15-6.37-11.01-14.47l.72-41.96c.13-7.69,4.89-13.83,10.72-13.83h.5c6.01,0,10.84,6.52,10.72,14.45l-.67,41.94c-.12,7.55-4.7,13.64-10.42,13.85Z"/>
                      <path class="cls-5" d="M293.45,174.22l1.89.04c4.68.1,8.28,4.18,7.75,8.83-.69,6.07-2.06,14.04-4.74,19.44-1.33,2.68-4.11,4.33-7.1,4.33h0c-5.12,0-8.88-4.75-7.75-9.75.94-4.16,1.77-9.34,1.84-14.87.06-4.48,3.63-8.11,8.11-8.02Z"/>
                    </g>
                    <path d="M151.4,53.6c1.69,4.32,2.96,8.83,3.75,13.49h-12.37c-1-4.75-2.54-9.28-4.6-13.49h13.22Z"/>
                    <path d="M281.42,53.6c-2.06,4.2-3.63,8.74-4.63,13.49h-12.37c.82-4.66,2.09-9.16,3.78-13.49h13.22Z"/>
                  </g>
                  <g>
                    <polygon points="310.72 402.21 308.42 418.84 308.21 420.35 297.6 497.2 118.44 497.2 110.3 420.35 110.15 418.84 108.4 402.21 310.72 402.21"/>
                    <g>
                      <polygon class="cls-7" points="277.52 428.85 272.1 480.2 146.23 480.2 138.13 428.85 277.52 428.85"/>
                      <g>
                        <polygon class="cls-6" points="189.9 480.2 168.61 480.2 159.42 428.85 180.86 428.85 189.9 480.2"/>
                        <polygon class="cls-6" points="257.65 480.2 223.14 480.2 213.61 428.85 248.36 428.85 257.65 480.2"/>
                      </g>
                      <path class="cls-2" d="M257.4,476.5h-97.12c-.46-2.94-3-5.11-5.97-5.11l-5.03-31.85c3.72,0,6.55-3.32,5.97-6.99h105.5c-.38,3.57,2.42,6.68,6.02,6.68l-3.35,31.85c-3.1,0-5.69,2.34-6.02,5.42Z"/>
                    </g>
                    <polygon class="cls-5" points="308.42 418.84 308.21 420.35 110.3 420.35 110.15 418.84 308.42 418.84"/>
                  </g>
                </g>
                <g>
                  <path d="M295.51,245.35c-4.21,7.06-8.95,13.84-14.17,20.2-2.47,1.02-5.01,1.96-7.55,2.83-2.08.73-4.18,1.43-6.34,2.13-2.49.82-4.98,1.64-7.45,2.52,7.04-6.34,13.76-13.04,20.15-20.05,5.3-2.27,10.43-4.81,15.36-7.62Z"/>
                  <path d="M127.36,247.17c4.21,7.06,8.47,13.09,13.69,19.45,2.47,1.02,5.39,2.01,7.93,2.88,2.08.73,4.02,1.25,6.18,1.96,2.49.82,5.66,2.01,8.13,2.88-7.04-6.34-14.73-13.53-21.12-20.54-5.3-2.27-9.87-3.82-14.81-6.63Z"/>
                </g>
              </g>
            </g>
            <g>
              <ellipse class="cls-3" cx="63.33" cy="100.07" rx="24.99" ry="24.78"/>
              <g>
                <line class="cls-4" x1="134.09" y1="295.78" x2="107.12" y2="331.74"/>
                <line class="cls-4" x1="101.12" y1="299.53" x2="139.18" y2="327.1"/>
              </g>
              <g>
                <line class="cls-4" x1="367.78" y1="184.51" x2="326.63" y2="202.59"/>
                <line class="cls-4" x1="337.23" y1="171.59" x2="356.84" y2="214.29"/>
              </g>
            </g>
          </g>
        </g>
        <g>
          <g>
            <g>
              <g>
                <path class="cls-1" d="M172.82,455.26h-1.1c-.1,0-.18-.03-.25-.1s-.1-.15-.1-.24v-2.13l-.5-.75c-.08-.1-.09-.22-.03-.34.03-.06.07-.1.13-.14.05-.03.11-.05.18-.05h.22v-2.03c0-.06,0-.13,0-.21,0-.08.01-.15.04-.23.02-.08.05-.15.1-.23.04-.08.11-.16.19-.23.23-.2.55-.31.95-.31h3.47c.1,0,.22,0,.35,0s.26.02.41.05c.14.03.28.07.43.13.14.06.28.15.41.26.14.12.25.26.33.41.08.15.15.31.19.48.04.17.07.33.09.51.01.17.02.34.02.5,0,.09,0,.22-.01.39,0,.17-.04.35-.08.54-.05.19-.12.38-.22.57-.1.19-.24.35-.42.49-.16.11-.34.19-.56.26-.22.06-.44.1-.67.1h-3.21v1.98c0,.1-.03.18-.1.24s-.15.1-.25.1ZM173.16,451.51h2.41c.14,0,.28,0,.41-.02.14-.02.25-.07.34-.16.11-.12.17-.37.17-.74s-.06-.61-.19-.73c-.05-.04-.11-.07-.17-.09-.07-.02-.13-.04-.2-.05-.07,0-.13-.02-.19-.02s-.11,0-.15,0h-2.27c-.07,0-.11,0-.14.03-.01,0-.02.05-.02.13v1.65Z"/>
                <path class="cls-1" d="M182.87,455.31c-.22,0-.45,0-.71,0-.26,0-.52-.03-.79-.08s-.54-.12-.8-.22-.5-.24-.71-.43c-.23-.2-.41-.42-.53-.67-.13-.25-.22-.5-.27-.75-.06-.25-.09-.5-.1-.74,0-.24-.01-.46-.01-.65,0-.18,0-.39.01-.63s.04-.49.1-.75c.06-.26.15-.51.27-.76.13-.25.3-.47.53-.66.22-.18.45-.33.7-.43.25-.1.51-.17.78-.22.27-.05.53-.08.79-.08.26,0,.51,0,.73,0,.22,0,.45,0,.72,0,.26,0,.53.03.8.08.27.05.53.12.79.22.26.1.5.24.71.43.2.17.36.37.48.6.12.23.21.46.27.71.06.25.1.5.12.76s.03.5.03.74,0,.48-.03.74c-.02.26-.06.51-.12.76-.06.25-.15.49-.27.71-.12.23-.28.43-.48.6-.21.19-.45.33-.71.43-.26.1-.53.17-.8.22s-.54.07-.8.08c-.26,0-.5,0-.72,0ZM182.86,449.65c-.4,0-.74.03-1.02.09-.28.06-.51.18-.68.37-.14.15-.24.35-.3.62-.06.27-.09.61-.09,1.03,0,.82.13,1.37.39,1.65.09.11.2.19.32.25.13.06.26.11.41.14s.3.05.46.06c.16,0,.33.01.5.01s.33,0,.5-.01c.16,0,.32-.03.47-.06.15-.03.28-.08.41-.14.13-.06.24-.14.33-.25.26-.28.39-.83.39-1.65,0-.27-.01-.51-.04-.7s-.06-.35-.09-.48c-.04-.13-.08-.23-.13-.3-.05-.07-.09-.13-.13-.18-.1-.11-.21-.19-.34-.25-.13-.06-.27-.11-.42-.14-.15-.03-.31-.05-.47-.06-.16,0-.32,0-.48,0Z"/>
                <path class="cls-1" d="M192.1,455.26h-3.74c-.11,0-.21-.05-.29-.15l-.5-.74c-.07-.11-.08-.22-.02-.34.06-.13.16-.19.31-.19h3.81c.19,0,.32-.04.38-.13.06-.09.09-.21.09-.35,0-.04,0-.08,0-.12,0-.04-.03-.09-.06-.13-.03-.05-.09-.09-.16-.14-.08-.04-.18-.09-.32-.12l-2.87-.81s-.05-.01-.12-.03c-.07-.02-.15-.05-.25-.1s-.2-.1-.3-.17c-.11-.07-.2-.15-.29-.25-.1-.1-.17-.21-.23-.33-.06-.12-.1-.24-.13-.37-.03-.12-.05-.24-.06-.36s-.01-.23-.01-.33c0-.11,0-.22.02-.34.01-.12.04-.24.08-.36.04-.12.09-.24.17-.36.07-.12.17-.23.29-.33.22-.18.45-.29.7-.34.24-.05.45-.07.63-.07h3.46c.13,0,.22.05.29.15l.5.75c.07.11.08.23.02.34-.03.06-.07.11-.13.14-.06.03-.12.05-.18.05h-3.48c-.08,0-.17,0-.24.01-.08,0-.14.04-.2.09-.05.04-.08.09-.09.15-.01.06-.02.12-.02.18,0,.04,0,.08,0,.12,0,.04.03.09.06.14.03.05.08.09.15.13.07.04.17.08.3.12l2.66.75c.28.08.51.16.68.24.17.08.32.17.44.27.37.32.56.8.56,1.43,0,.1,0,.2-.01.31s-.03.23-.06.35-.07.24-.13.36c-.05.12-.13.24-.23.34-.11.13-.22.23-.34.3-.12.07-.24.12-.37.16-.13.03-.25.06-.38.07-.13,0-.25.01-.37.01Z"/>
                <path class="cls-1" d="M198.54,455.26h-1.1c-.1,0-.19-.03-.25-.1-.07-.07-.1-.15-.1-.24v-5.22h-1.88c-.13,0-.22-.05-.29-.15l-.5-.75c-.08-.1-.09-.22-.03-.34.05-.13.16-.19.31-.19h6.09c.12,0,.22.05.29.14l.5.75c.08.11.09.23.03.34-.07.13-.17.2-.31.2h-2.4v5.22c0,.1-.03.18-.1.24-.07.07-.15.1-.25.1Z"/>
                <path class="cls-1" d="M208.44,455.26h-4.51c-.16,0-.33-.01-.49-.03-.17-.02-.32-.1-.47-.22-.09-.08-.16-.16-.2-.24-.05-.09-.08-.17-.1-.26-.02-.09-.04-.17-.04-.25,0-.08,0-.14,0-.2v-4.53l-.5-.73c-.08-.11-.09-.23-.03-.34.03-.06.07-.11.13-.15.05-.03.11-.05.18-.05h5.48c.13,0,.22.05.29.15l.51.74c.03.05.05.11.06.17,0,.06,0,.12-.03.18-.07.13-.17.2-.31.2h-3.7s-.07,0-.12,0-.09.02-.12.04c-.01.01-.02.03-.03.04,0,.01,0,.04,0,.1v1.1h3.37c.12,0,.21.05.28.15l.51.74c.08.1.09.22.03.34-.03.06-.07.11-.13.14-.06.03-.12.05-.18.05h-3.87v1.31s0,.04,0,.05,0,.02,0,.03c.02.01.06.02.12.03.05,0,.13,0,.22,0h3.15c.12,0,.22.05.29.14l.5.75c.08.11.09.23.03.35-.06.13-.16.19-.31.19Z"/>
                <path class="cls-1" d="M214.53,455.34c-.21,0-.38-.03-.52-.09-.14-.06-.25-.13-.34-.22-.09-.09-.16-.19-.22-.3-.06-.11-.11-.21-.15-.32l-1.74-4.08.02,4.58c0,.1-.03.18-.09.24-.07.08-.15.11-.25.11h-1.12c-.1,0-.18-.03-.24-.1-.07-.07-.1-.15-.1-.24v-5.39l-.5-.74c-.08-.1-.09-.22-.03-.34.03-.06.07-.1.13-.14.05-.03.11-.05.18-.05h1.8c.2.02.38.06.52.12.14.06.26.14.36.23s.18.19.24.3c.06.11.12.22.17.32l1.88,4.29h0s0,0,0,0l1.78-4.06-.45-.67c-.07-.11-.08-.22-.02-.34.06-.13.16-.19.31-.19h1.78c.43,0,.76.1.99.3.24.19.36.46.36.79v5.57c0,.1-.03.18-.1.24s-.15.1-.25.1h-1.11c-.11,0-.19-.04-.25-.11-.07-.06-.1-.14-.09-.24l.04-4.53-1.76,4.03c-.05.13-.11.25-.18.36s-.14.21-.23.3c-.09.09-.2.15-.34.2-.13.05-.3.07-.5.07Z"/>
                <path class="cls-1" d="M223.74,455.31c-.22,0-.45,0-.71,0-.26,0-.52-.03-.79-.08-.27-.05-.54-.12-.8-.22-.26-.1-.5-.24-.71-.43-.23-.2-.41-.42-.53-.67-.13-.25-.22-.5-.27-.75-.06-.25-.09-.5-.1-.74,0-.24-.01-.46-.01-.65,0-.18,0-.39.01-.63s.04-.49.1-.75c.06-.26.15-.51.27-.76.13-.25.3-.47.53-.66.22-.18.45-.33.7-.43.25-.1.51-.17.78-.22.27-.05.53-.08.79-.08.26,0,.51,0,.73,0,.22,0,.45,0,.72,0,.26,0,.53.03.8.08.27.05.53.12.79.22.26.1.5.24.71.43.2.17.36.37.48.6s.21.46.27.71c.06.25.1.5.12.76s.03.5.03.74,0,.48-.03.74c-.02.26-.06.51-.12.76-.06.25-.15.49-.27.71-.12.23-.28.43-.48.6-.21.19-.45.33-.71.43-.26.1-.53.17-.8.22-.27.05-.54.07-.8.08-.26,0-.5,0-.72,0ZM223.73,449.65c-.4,0-.74.03-1.02.09-.28.06-.51.18-.68.37-.14.15-.24.35-.3.62-.06.27-.09.61-.09,1.03,0,.82.13,1.37.39,1.65.09.11.2.19.32.25.13.06.26.11.41.14.15.03.3.05.46.06.16,0,.33.01.5.01s.33,0,.5-.01c.16,0,.32-.03.47-.06.15-.03.28-.08.41-.14.13-.06.24-.14.33-.25.26-.28.39-.83.39-1.65,0-.27-.01-.51-.04-.7-.02-.19-.06-.35-.09-.48-.04-.13-.08-.23-.13-.3-.05-.07-.09-.13-.13-.18-.1-.11-.21-.19-.34-.25-.13-.06-.27-.11-.42-.14s-.31-.05-.47-.06c-.16,0-.32,0-.48,0Z"/>
                <path class="cls-1" d="M232.97,455.26h-3.74c-.11,0-.21-.05-.29-.15l-.5-.74c-.07-.11-.08-.22-.02-.34.06-.13.16-.19.31-.19h3.81c.19,0,.32-.04.38-.13.06-.09.09-.21.09-.35,0-.04,0-.08,0-.12,0-.04-.03-.09-.06-.13-.03-.05-.09-.09-.16-.14-.08-.04-.18-.09-.32-.12l-2.87-.81s-.05-.01-.12-.03-.15-.05-.25-.1-.2-.1-.3-.17-.2-.15-.29-.25c-.1-.1-.17-.21-.23-.33s-.1-.24-.13-.37c-.03-.12-.05-.24-.06-.36s-.01-.23-.01-.33c0-.11,0-.22.02-.34s.04-.24.08-.36.09-.24.17-.36c.07-.12.17-.23.29-.33.22-.18.45-.29.7-.34.24-.05.45-.07.63-.07h3.46c.13,0,.22.05.29.15l.5.75c.07.11.08.23.02.34-.03.06-.07.11-.13.14s-.12.05-.18.05h-3.48c-.08,0-.17,0-.24.01-.08,0-.14.04-.2.09-.05.04-.08.09-.09.15-.01.06-.02.12-.02.18,0,.04,0,.08,0,.12,0,.04.03.09.06.14.03.05.08.09.15.13s.17.08.3.12l2.66.75c.28.08.51.16.68.24.17.08.32.17.44.27.37.32.56.8.56,1.43,0,.1,0,.2-.01.31s-.03.23-.06.35-.07.24-.13.36-.13.24-.23.34c-.11.13-.22.23-.34.3-.12.07-.24.12-.37.16s-.25.06-.38.07c-.13,0-.25.01-.37.01Z"/>
              </g>
              <g>
                <g>
                  <path class="cls-1" d="M162.72,455.78s.62-.22.86-.26c0,0,.16,1.36.49,1.84,0,0,.84-.28.84-.28,0,0,.16.37.22.59,0,0-.78.36-1.6.48,0,0-.63-1.15-.82-2.37Z"/>
                  <path class="cls-1" d="M167.51,455.82c-.42,0-.75.34-.75.77s.34.77.75.77.75-.34.75-.77-.34-.77-.75-.77ZM167.49,456.85c-.09,0-.16-.07-.16-.16s.07-.16.16-.16.15.07.15.16-.07.16-.15.16Z"/>
                  <path class="cls-1" d="M165.32,455.58s.92-.19,1.54-.24c0,0,.13.56.13.56,0,0-.39.1-.44.1.01,0,.17.95.16,1.05,0,0-.55.09-.7.1,0,0-.17-.95-.17-1.02,0,.01-.5.03-.5.03,0,0-.05-.51-.03-.58Z"/>
                  <path class="cls-1" d="M164.95,455.69c-.43,0-.78.37-.78.82s.35.82.78.82.78-.37.78-.82-.35-.82-.78-.82ZM164.98,456.81c-.09,0-.15-.08-.15-.18s.07-.18.15-.18.15.08.15.18-.07.18-.15.18Z"/>
                </g>
                <g>
                  <path class="cls-1" d="M165.06,452.97c-.38.33-.78.67-1.18,1.02h4.35c-.1-.14-.4-.55-.76-1.02h-2.41Z"/>
                  <g>
                    <path class="cls-1" d="M170.25,453.73l-.92-1.76h0c-.55-.85-.92-1.19-1.3-1.19-.16,0-.33.06-.54.18-.21.13-.64.46-1.25.97.68.8,1.75,2.27,2.19,2.91.02.04.04.06.06.09.13.21.36.33.64.33.2,0,.4-.06.59-.17.51-.3.75-.9.56-1.33,0-.02-.01-.03-.01-.03Z"/>
                    <path class="cls-1" d="M161.36,455.84c1.55-1.35,3.47-3.04,4.76-4.1.66-.54,1.09-.87,1.31-1.01.23-.14.42-.2.6-.2.33,0,.64.21,1.03.72l-1.19-2.61c-.04-.07-.09-.14-.12-.17-.17-.16-.39-.25-.66-.25-.18,0-.37.04-.56.13-.18.08-.36.19-.53.34l-8.33,8.28h0s-.05.05-.05.05c-.21.2-.35.45-.38.71-.02.21.04.4.16.54.15.16.39.24.64.21.21-.03.42-.13.6-.28l.43-.37-.04.05c.52-.44,1.37-1.18,2.31-2.01Z"/>
                  </g>
                </g>
              </g>
              <g>
                <path class="cls-1" d="M172.16,457.35h-1.03v-.69h2.81v.69h-1.03v2.71h-.75v-2.71Z"/>
                <path class="cls-1" d="M174.73,458.6v-1.94h.75v1.92c0,.56.27.84.73.84s.73-.27.73-.82v-1.95h.75v1.92c0,1.03-.58,1.53-1.49,1.53s-1.47-.5-1.47-1.51Z"/>
                <path class="cls-1" d="M180.28,458.37h0c0-.98.73-1.77,1.77-1.77.64,0,1.03.21,1.34.52l-.48.55c-.27-.24-.52-.38-.87-.38-.57,0-.99.48-.99,1.06h0c0,.59.4,1.08.99,1.08.39,0,.63-.15.89-.4l.48.48c-.35.37-.73.61-1.39.61-1,0-1.74-.77-1.74-1.75Z"/>
                <path class="cls-1" d="M185.44,456.64h.69l1.46,3.42h-.78l-.31-.76h-1.44l-.31.76h-.76l1.46-3.42ZM186.22,458.64l-.45-1.1-.45,1.1h.9Z"/>
                <path class="cls-1" d="M188.09,459.56l.44-.53c.31.25.63.41,1.01.41.31,0,.49-.12.49-.32h0c0-.2-.12-.3-.68-.44-.69-.17-1.13-.37-1.13-1.04h0c0-.63.49-1.03,1.19-1.03.5,0,.91.16,1.26.43l-.39.56c-.31-.21-.59-.33-.88-.33s-.44.13-.44.3h0c0,.24.15.3.73.46.69.18,1.08.43,1.08,1.02h0c0,.68-.51,1.06-1.25,1.06-.52,0-1.03-.17-1.44-.54Z"/>
                <path class="cls-1" d="M192.78,456.64h.69l1.46,3.42h-.78l-.31-.76h-1.44l-.31.76h-.76l1.46-3.42ZM193.56,458.64l-.45-1.1-.45,1.1h.9Z"/>
                <path class="cls-1" d="M197.43,456.66h1.32c1.07,0,1.81.73,1.81,1.69h0c0,.97-.74,1.71-1.81,1.71h-1.32v-3.4ZM198.17,457.34v2.05h.58c.61,0,1.02-.41,1.02-1.01h0c0-.61-.42-1.03-1.02-1.03h-.58Z"/>
                <path class="cls-1" d="M201.48,456.66h2.56v.66h-1.82v.69h1.6v.66h-1.6v.71h1.84v.66h-2.59v-3.4Z"/>
                <path class="cls-1" d="M207.88,456.64h.69l1.46,3.42h-.78l-.31-.76h-1.44l-.31.76h-.76l1.46-3.42ZM208.67,458.64l-.45-1.1-.45,1.1h.9Z"/>
                <path class="cls-1" d="M210.81,456.66h1.39c.81,0,1.3.48,1.3,1.17h0c0,.8-.61,1.2-1.37,1.2h-.57v1.02h-.75v-3.4ZM212.15,458.38c.37,0,.59-.22.59-.51h0c0-.34-.23-.52-.61-.52h-.58v1.04h.59Z"/>
                <path class="cls-1" d="M214.26,458.6v-1.94h.75v1.92c0,.56.27.84.73.84s.73-.27.73-.82v-1.95h.75v1.92c0,1.03-.58,1.53-1.49,1.53s-1.47-.5-1.47-1.51Z"/>
                <path class="cls-1" d="M218.25,456.66h2.56v.66h-1.82v.69h1.6v.66h-1.6v.71h1.84v.66h-2.59v-3.4Z"/>
                <path class="cls-1" d="M221.53,459.56l.44-.53c.31.25.63.41,1.01.41.31,0,.49-.12.49-.32h0c0-.2-.12-.3-.68-.44-.69-.17-1.13-.37-1.13-1.04h0c0-.63.49-1.03,1.19-1.03.5,0,.91.16,1.26.43l-.39.56c-.31-.21-.59-.33-.88-.33s-.44.13-.44.3h0c0,.24.15.3.73.46.69.18,1.08.43,1.08,1.02h0c0,.68-.51,1.06-1.25,1.06-.52,0-1.03-.17-1.44-.54Z"/>
                <path class="cls-1" d="M225.84,457.35h-1.03v-.69h2.81v.69h-1.03v2.71h-.75v-2.71Z"/>
                <path class="cls-1" d="M229.19,456.64h.69l1.46,3.42h-.78l-.31-.76h-1.44l-.31.76h-.76l1.46-3.42ZM229.97,458.64l-.45-1.1-.45,1.1h.9Z"/>
                <path class="cls-1" d="M231.84,459.56l.44-.53c.31.25.63.41,1.01.41.31,0,.49-.12.49-.32h0c0-.2-.12-.3-.68-.44-.69-.17-1.13-.37-1.13-1.04h0c0-.63.49-1.03,1.19-1.03.5,0,.91.16,1.26.43l-.39.56c-.31-.21-.59-.33-.88-.33s-.44.13-.44.3h0c0,.24.15.3.73.46.69.18,1.08.43,1.08,1.02h0c0,.68-.51,1.06-1.25,1.06-.52,0-1.03-.17-1.44-.54Z"/>
              </g>
            </g>
            <rect class="cls-1" x="238.89" y="447.91" width=".31" height="12.52"/>
          </g>
          <g>
            <g>
              <path class="cls-1" d="M248.07,459.94s.05-.05.1-.03c.05.02.06.05.05.09-.03.17-.06.3-.1.39s-.09.12-.19.09c-.09-.04-.11-.11-.07-.19.04-.09.11-.21.21-.35ZM248.3,459.6c.07.03.11.11.08.19s-.11.11-.19.08c-.07-.03-.11-.11-.08-.19s.11-.11.19-.08Z"/>
              <path class="cls-1" d="M248.52,459.84c-.06-.02-.08-.07-.06-.12s.06-.08.13-.06l.48.15c.07.02.09.07.07.12-.02.05-.06.08-.12.06l-.14-.04-.13.41c-.02.08-.08.11-.15.09-.07-.02-.1-.08-.07-.16l.13-.41-.14-.04Z"/>
              <path class="cls-1" d="M249.2,460.62c-.17-.04-.28-.15-.23-.35.04-.19.19-.24.36-.21.23.05.27.23.25.31-.01.06-.05.08-.12.06l-.29-.07c-.01.07.02.12.09.14.08.02.13-.04.2-.02.04,0,.06.05.05.08-.01.06-.1.1-.3.05ZM249.38,460.31c.02-.07-.02-.11-.07-.12-.05-.01-.1,0-.12.08l.19.05Z"/>
              <path class="cls-1" d="M250.26,460.22c.15.01.24.09.23.17,0,.05-.04.07-.08.07-.05,0-.07-.08-.15-.09-.09,0-.11.06-.12.12,0,.07,0,.14.08.15.07,0,.11-.07.17-.06.05,0,.08.05.07.09,0,.04-.07.14-.26.12-.17-.02-.29-.12-.27-.31.02-.19.16-.27.33-.25Z"/>
              <path class="cls-1" d="M251.13,460.64s0,.07,0,.1c0,.05-.05.08-.1.07-.07,0-.1-.04-.11-.09-.04.06-.12.09-.19.09-.12,0-.2-.05-.2-.17,0-.09.06-.16.27-.17.08,0,.11-.02.11-.05,0-.03-.03-.05-.09-.05-.09,0-.11.07-.19.07-.04,0-.07-.02-.07-.07,0-.08.11-.13.26-.13.11,0,.29.03.29.16v.24ZM250.92,460.56s-.1.03-.14.04c-.02,0-.03.02-.03.04,0,.03.03.05.07.05.06,0,.1-.04.1-.08v-.06Z"/>
              <path class="cls-1" d="M251.93,460.43c0-.07-.03-.09-.08-.08-.04,0-.07.04-.06.1l.02.2c0,.07-.03.11-.09.12-.06,0-.11-.02-.12-.09l-.02-.2c0-.07-.03-.09-.08-.08-.04,0-.07.04-.06.1l.02.2c0,.07-.03.11-.09.12-.06,0-.11-.02-.12-.09l-.04-.36c0-.07.02-.1.09-.11.06,0,.09.03.11.09h0c.03-.07.08-.11.16-.12.07,0,.14.01.17.08.04-.08.09-.12.17-.12.15-.02.22.07.23.18l.03.25c0,.07-.03.11-.09.12s-.11-.02-.12-.09l-.02-.2Z"/>
              <path class="cls-1" d="M252.15,460.03c-.02-.07.01-.11.08-.13s.11,0,.12.08l.04.17h0c.02-.06.06-.1.13-.12.17-.04.27.12.29.22.04.17-.02.3-.17.33-.06.01-.15,0-.18-.06h0c.01.05,0,.1-.07.12-.06.01-.1-.01-.12-.08l-.13-.54ZM252.54,460.46c.07-.02.07-.08.06-.14-.01-.06-.05-.11-.12-.1-.05.01-.07.06-.05.13.02.07.05.12.11.1Z"/>
              <path class="cls-1" d="M252.83,459.71c.05-.02.11.01.13.07.02.05-.01.11-.07.12-.05.02-.11-.01-.13-.07-.02-.05.01-.11.07-.12ZM252.83,460.07c-.02-.07.01-.11.07-.13.06-.02.11,0,.13.07l.11.34c.02.07-.01.11-.07.13-.06.02-.11,0-.13-.07l-.11-.34Z"/>
              <path class="cls-1" d="M253.75,460.05s.03.06.04.09c.02.05-.02.09-.07.11-.07.03-.11,0-.13-.04-.02.07-.08.12-.15.15-.11.04-.21.03-.25-.08-.03-.08,0-.17.19-.26.07-.03.1-.06.09-.09-.01-.03-.05-.04-.1-.02-.09.03-.08.11-.15.14-.04.02-.07,0-.09-.04-.03-.07.06-.16.19-.22.11-.04.28-.08.32.05l.09.22ZM253.53,460.05s-.08.06-.11.09c-.01.01-.02.03-.01.05.01.03.05.04.08.03.06-.02.08-.07.07-.11l-.02-.06Z"/>
              <path class="cls-1" d="M253.89,459.43c-.03-.06,0-.11.05-.14s.11-.02.14.04l.26.49c.03.06,0,.11-.05.14s-.11.02-.14-.04l-.26-.49Z"/>
              <path class="cls-1" d="M254.88,459.43s.04.06.06.08c.03.04,0,.09-.05.12-.06.04-.1.02-.14-.02,0,.07-.05.13-.12.17-.1.06-.2.06-.26-.04-.05-.08-.03-.17.14-.29.07-.05.09-.07.07-.1-.02-.03-.05-.03-.1,0-.08.05-.06.12-.12.16-.04.02-.07.01-.09-.02-.04-.07.03-.17.15-.25.1-.06.26-.13.33-.01l.12.2ZM254.66,459.47s-.07.07-.1.11c-.01.02-.01.03,0,.05.02.03.05.03.08.01.05-.03.07-.08.05-.12l-.03-.05Z"/>
              <path class="cls-1" d="M255.27,458.76c-.03-.05-.04-.09.02-.14.04-.04.1-.03.13,0,.02.02.03.05.04.09l.11.31c.02.07,0,.1-.06.15-.06.05-.09.07-.15.03l-.28-.17s-.06-.04-.08-.06c-.03-.04-.02-.1.02-.13.05-.04.08-.03.14,0l.23.17h0s-.12-.26-.12-.26Z"/>
              <path class="cls-1" d="M255.3,458.29s.1-.03.14,0,.03.1,0,.14c-.04.04-.1.03-.14,0s-.03-.1,0-.14ZM255.46,458.62c-.05-.05-.04-.11,0-.15s.1-.05.15,0l.24.26c.05.05.04.11,0,.15s-.1.05-.15,0l-.24-.26Z"/>
              <path class="cls-1" d="M255.78,458.02c-.05-.05-.05-.1,0-.15s.1-.05.15,0l.4.39s.05.09,0,.14c-.04.04-.09.04-.13,0h0c.04.06,0,.14-.04.19-.1.11-.25.1-.37-.02-.08-.07-.16-.24-.04-.37.05-.05.11-.06.16-.05h0s-.13-.13-.13-.13ZM255.92,458.26c-.05.05-.02.11.02.15.04.04.1.07.15.02.04-.04.02-.1-.03-.15-.05-.05-.11-.06-.14-.02Z"/>
              <path class="cls-1" d="M256.7,457.68s.06.04.08.05c.04.03.03.08,0,.12-.05.06-.09.06-.13.03.02.07,0,.14-.05.2-.07.09-.16.13-.26.05-.07-.06-.08-.15.04-.32.05-.07.06-.1.03-.12-.03-.02-.06-.01-.09.03-.06.07-.01.13-.06.19-.03.03-.06.04-.09.01-.06-.05-.03-.17.06-.28.07-.09.2-.21.3-.13l.18.15ZM256.51,457.79s-.04.09-.05.13c0,.02,0,.04.02.05.03.02.06,0,.08-.02.04-.05.03-.1,0-.13l-.05-.04Z"/>
              <path class="cls-1" d="M256.38,457.08c.06-.08.13-.08.2-.03s.18.15.3.27c.03.03.04.06,0,.11-.03.05-.06.05-.1.03-.16-.06-.29-.12-.36-.17-.08-.05-.1-.12-.05-.2ZM256.94,457.45c.04-.07.13-.08.2-.04s.08.13.04.2c-.04.07-.13.08-.2.04s-.08-.13-.04-.2Z"/>
            </g>
            <g>
              <path class="cls-1" d="M246.24,451.58s.04,0,.06,0c.93-2.01,3.09-3.27,5.4-2.94,2.09.3,3.7,1.82,4.23,3.73.3.11.58.28.8.51-.14-1.6-.93-3.13-2.31-4.17-1.03-.78-2.26-1.19-3.55-1.19-1.86,0-3.58.85-4.7,2.34-.46.61-.79,1.29-.99,2.01.39-.12.81-.24,1.07-.28Z"/>
              <path class="cls-1" d="M255.31,456.48c-1.05,1.65-3,2.63-5.07,2.33-.84-.12-1.61-.44-2.26-.91-.22.06-.46.13-.7.18.01,0,.02.02.03.02,1.03.78,2.26,1.19,3.55,1.19,1.86,0,3.58-.85,4.7-2.34.15-.2.29-.41.41-.62-.21.08-.43.12-.66.13Z"/>
            </g>
            <g>
              <path class="cls-1" d="M244.29,452.58s1.41-.5,1.95-.58c-.01,0,.35,3.09,1.12,4.19-.02-.02,1.91-.64,1.91-.64,0,0,.37.85.51,1.34,0,.02-1.76.83-3.63,1.09,0,0-1.43-2.63-1.86-5.4Z"/>
              <path class="cls-1" d="M255.19,452.68c-.95,0-1.72.78-1.72,1.75s.77,1.75,1.72,1.75,1.72-.78,1.72-1.75-.77-1.75-1.72-1.75ZM255.15,455.04c-.19,0-.35-.16-.35-.36s.16-.36.35-.36.35.16.35.36-.16.36-.35.36Z"/>
              <path class="cls-1" d="M250.22,452.14s2.09-.42,3.51-.55c.02.02.3,1.27.3,1.27,0,0-.89.22-1,.24.03-.02.38,2.16.36,2.38,0-.02-1.24.2-1.6.22,0,0-.38-2.16-.38-2.32,0,.03-1.13.08-1.13.08,0,0-.11-1.16-.06-1.32Z"/>
              <path class="cls-1" d="M249.37,452.39c-.98,0-1.77.84-1.77,1.87s.79,1.87,1.77,1.87,1.77-.84,1.77-1.87-.79-1.87-1.77-1.87ZM249.44,454.93c-.19,0-.35-.18-.35-.41s.16-.41.35-.41.35.18.35.41-.16.41-.35.41Z"/>
            </g>
          </g>
        </g>
      </g>
      <g>
        <g>
          <path class="cls-5" d="M196.58,193.18s5.49-1.94,7.59-2.26c-.04,0,1.38,12.04,4.37,16.32-.08-.08,7.43-2.51,7.43-2.51,0,0,1.45,3.32,1.98,5.22,0,.08-6.87,3.23-14.14,4.24,0,0-5.58-10.22-7.23-21.01Z"/>
          <path class="cls-5" d="M239.01,193.57c-3.69,0-6.68,3.05-6.68,6.81s2.99,6.81,6.68,6.81,6.68-3.05,6.68-6.81-2.99-6.81-6.68-6.81ZM238.83,202.73c-.75,0-1.38-.63-1.38-1.41s.62-1.41,1.38-1.41,1.37.63,1.37,1.41-.62,1.41-1.37,1.41Z"/>
          <path class="cls-5" d="M219.64,191.44s8.12-1.65,13.67-2.13c.06.06,1.16,4.94,1.16,4.94,0,0-3.48.86-3.9.91.12-.06,1.46,8.43,1.41,9.28,0-.06-4.83.79-6.23.86,0,0-1.47-8.42-1.47-9.03,0,.12-4.39.3-4.39.3,0,0-.43-4.51-.25-5.13Z"/>
          <path class="cls-5" d="M216.34,192.41c-3.8,0-6.89,3.26-6.89,7.29s3.09,7.29,6.89,7.29,6.9-3.27,6.9-7.29-3.09-7.29-6.9-7.29ZM216.62,202.3c-.76,0-1.37-.71-1.37-1.58s.61-1.59,1.37-1.59,1.37.72,1.37,1.59-.61,1.58-1.37,1.58Z"/>
        </g>
        <g>
          <path class="cls-5" d="M217.32,168.35c-3.37,2.89-6.89,5.94-10.44,9.02h38.54c-.87-1.21-3.55-4.88-6.74-9.02h-21.35Z"/>
          <g>
            <path class="cls-5" d="M263.28,175.08l-8.17-15.54-.03.02c-4.84-7.5-8.16-10.56-11.48-10.56-1.38,0-2.9.51-4.77,1.6-1.89,1.15-5.63,4.03-11.11,8.55,6.05,7.08,15.52,20.11,19.42,25.76.18.31.34.56.51.79,1.16,1.85,3.21,2.9,5.65,2.9,1.73,0,3.52-.53,5.18-1.52,4.47-2.67,6.68-7.95,4.91-11.76-.07-.16-.11-.23-.11-.24Z"/>
            <path class="cls-5" d="M184.54,193.76c13.69-11.99,30.73-26.91,42.12-36.33,5.82-4.81,9.63-7.74,11.64-8.97,2.04-1.2,3.73-1.75,5.3-1.75,2.91,0,5.63,1.84,9.08,6.33l-10.56-23.13c-.35-.65-.8-1.23-1.07-1.49-1.48-1.43-3.49-2.19-5.81-2.19-1.61,0-3.32.38-4.93,1.11-1.59.67-3.16,1.67-4.68,2.99l-73.77,73.34.02.02-.4.38c-1.9,1.73-3.11,4.01-3.32,6.25-.17,1.84.34,3.53,1.44,4.74,1.33,1.46,3.42,2.13,5.71,1.83,1.87-.25,3.75-1.12,5.31-2.47l3.78-3.26-.33.43c4.58-3.88,12.1-10.47,20.48-17.81Z"/>
          </g>
        </g>
      </g>
    </g>
  </g>
</svg>