<?xml version="1.0" encoding="UTF-8"?>
<svg id="Capa_2" data-name="Capa 2" xmlns="http://www.w3.org/2000/svg" viewBox="0 0 278.91 278.91">
  <defs>
    <style>
      .cls-1 {
        fill: #fff;
      }

      .cls-2 {
        fill: #37a462;
      }
    </style>
  </defs>
  <g id="_01" data-name="01">
    <g>
      <circle class="cls-2" cx="139.45" cy="139.45" r="139.45"/>
      <path class="cls-1" d="M45.08,138.7l36.33-36.33c5.18-5.18,13.58-5.18,18.76,0l20.94,20.94,66.31-66.31c6.16-6.16,16.14-6.16,22.3,0l32.79,32.79c6.16,6.16,6.16,16.14,0,22.3l-74.03,74.03c-.44.64-.94,1.25-1.51,1.82l-36.33,36.33c-5.18,5.18-13.58,5.18-18.76,0l-.14-.14c-.68-.49-1.33-1.02-1.94-1.63l-32.79-32.79c-.61-.61-1.14-1.26-1.63-1.94l-30.3-30.3c-5.18-5.18-5.18-13.58,0-18.76Z"/>
    </g>
  </g>
</svg>