<?xml version="1.0" encoding="UTF-8"?>
<svg id="Capa_2" data-name="Capa 2" xmlns="http://www.w3.org/2000/svg" viewBox="0 0 278.91 278.91">
  <defs>
    <style>
      .cls-1 {
        fill: #fff;
      }

      .cls-2 {
        fill: #be274b;
      }
    </style>
  </defs>
  <g id="_01" data-name="01">
    <g>
      <circle class="cls-2" cx="139.45" cy="139.45" r="139.45"/>
      <path class="cls-1" d="M204.04,149.42c-5.5-5.5-5.5-14.43,0-19.93l19.11-19.11c5.5-5.5,5.5-14.43,0-19.93l-34.69-34.69c-5.5-5.5-14.43-5.5-19.93,0l-19.11,19.11c-5.5,5.5-14.43,5.5-19.93,0l-19.11-19.11c-5.5-5.5-14.43-5.5-19.93,0l-34.69,34.69c-3.79,3.79-4.97,9.19-3.54,13.99.64,2.8,2.03,5.46,4.21,7.64l21.08,21.08c2.63,5.28,1.76,11.86-2.64,16.26l-19.11,19.11c-5.5,5.5-5.5,14.43,0,19.93l34.69,34.69c5.5,5.5,14.43,5.5,19.93,0l19.11-19.11c4.4-4.4,10.98-5.27,16.26-2.64l21.08,21.08c2.18,2.18,4.84,3.57,7.64,4.21,4.8,1.42,10.2.24,13.99-3.54l.67-.67,32.79-32.79,1.24-1.24c5.5-5.5,5.5-14.43,0-19.93l-19.11-19.11Z"/>
    </g>
  </g>
</svg>